<?xml version="1.0" standalone="no"?>
<!DOCTYPE svg PUBLIC "-//W3C//DTD SVG 20010904//EN"
 "http://www.w3.org/TR/2001/REC-SVG-20010904/DTD/svg10.dtd">
<svg version="1.0" xmlns="http://www.w3.org/2000/svg"
 width="1024.000000pt" height="1024.000000pt" viewBox="0 0 1024.000000 1024.000000"
 preserveAspectRatio="xMidYMid meet">
<metadata>
Created by potrace 1.16, written by Peter Selinger 2001-2019
</metadata>
<g transform="translate(0.000000,1024.000000) scale(0.100000,-0.100000)"
fill="#000000" stroke="none">
<path d="M5705 8299 c-104 -34 -223 -71 -263 -83 l-74 -22 95 -13 c421 -55
890 -286 1206 -594 176 -173 299 -341 448 -611 25 -45 42 -72 38 -62 -25 80
-39 140 -80 358 -25 137 -51 287 -57 335 -6 49 -16 94 -22 100 -9 10 -42 -4
-149 -63 -136 -75 -138 -76 -159 -58 -11 11 -31 40 -44 66 -18 36 -28 46 -42
42 -14 -5 -14 -4 -3 4 12 9 11 17 -11 49 -15 21 -30 52 -34 68 -3 17 -45 108
-93 203 -77 155 -90 175 -126 196 -43 26 -132 63 -101 43 10 -7 31 -22 47 -35
16 -13 33 -21 38 -18 5 4 12 2 16 -4 3 -5 -9 -9 -30 -8 -19 1 -38 -2 -42 -5
-3 -4 1 -7 10 -7 31 0 17 -15 -36 -39 -55 -25 -134 -35 -154 -19 -7 6 -15 3
-22 -9 -6 -10 -11 -13 -11 -8 0 6 -5 3 -10 -5 -8 -13 -18 -12 -74 8 -36 13
-76 23 -88 22 -40 -4 -63 0 -53 8 17 11 50 73 74 136 24 65 26 86 9 85 -7 0
-98 -27 -203 -60z"/>
<path d="M5545 7848 c-26 -14 -111 -95 -136 -130 -14 -20 -17 -32 -10 -50 8
-21 4 -27 -34 -51 -48 -31 -136 -121 -154 -157 l-12 -25 17 25 c37 53 143 146
203 178 34 19 64 32 67 29 2 -2 -22 -20 -55 -41 -60 -37 -161 -138 -194 -195
-26 -45 -14 -38 18 10 36 56 105 129 120 129 13 0 38 -47 27 -53 -4 -2 -1 -2
7 0 7 2 55 6 105 9 90 5 212 29 231 46 5 4 -38 9 -95 9 -58 1 -118 5 -135 9
-30 7 -30 7 -5 13 14 3 67 10 118 16 106 13 214 48 189 62 -8 5 -38 10 -67 11
-69 3 -72 14 -8 28 29 6 78 19 108 29 l55 19 -48 7 c-51 8 -166 -1 -205 -16
-40 -15 -35 -5 14 30 26 18 44 34 41 37 -12 12 -91 -20 -152 -60 -36 -25 -65
-42 -65 -39 0 3 20 34 46 69 45 64 47 73 9 52z"/>
<path d="M5883 7475 c-72 -22 -129 -62 -199 -140 -37 -41 -69 -73 -71 -71 -7
7 28 69 66 116 72 89 71 85 24 61 -67 -33 -106 -74 -215 -218 -55 -73 -103
-131 -106 -129 -3 3 14 31 38 62 l43 57 -44 -6 -44 -7 40 24 c62 37 95 66 95
83 0 10 -6 13 -16 9 -9 -3 -38 -6 -65 -6 -46 0 -50 -2 -74 -41 -23 -35 -28
-39 -42 -27 -15 12 -15 11 -5 -9 23 -43 14 -70 -45 -135 -32 -35 -50 -57 -40
-49 15 12 17 11 17 -10 0 -13 -9 -37 -20 -54 -11 -16 -20 -38 -20 -48 0 -10
-16 -34 -35 -54 -20 -20 -38 -47 -41 -59 -9 -35 -61 -134 -67 -128 -5 5 -51
-85 -70 -136 -3 -8 -6 19 -6 61 -1 72 1 78 24 93 36 23 65 75 64 111 -1 28 -2
28 -8 -7 -10 -47 -35 -86 -67 -100 -24 -11 -24 -12 -24 -157 l0 -146 99 -100
99 -100 2 -230 c1 -126 5 -527 9 -890 l6 -660 35 1 c19 0 67 1 106 2 l70 2
-27 83 c-46 140 -52 241 -74 1162 -3 127 -8 267 -11 312 l-5 81 163 136 164
136 -4 39 c-3 32 2 44 28 74 74 84 200 41 200 -68 0 -72 -63 -125 -132 -111
-18 4 -40 8 -50 9 -9 1 -80 -52 -158 -118 l-142 -120 6 -155 c3 -85 11 -342
16 -570 15 -611 22 -677 82 -837 l19 -53 272 0 271 0 -199 111 c-110 61 -210
117 -221 124 -24 15 -22 0 -44 385 -5 96 -12 214 -16 261 l-5 87 125 71 125
72 78 -26 c93 -31 94 -31 113 -70 35 -68 135 -82 191 -26 51 51 50 107 0 164
-26 29 -35 32 -85 32 -47 0 -60 -4 -82 -26 l-26 -26 -51 19 c-29 11 -53 21
-55 22 -1 2 24 19 57 39 55 34 73 39 272 72 118 19 222 35 232 35 11 0 30 -9
44 -20 32 -25 109 -27 141 -4 53 37 66 110 29 165 -54 81 -174 65 -214 -28 -7
-18 -17 -33 -21 -33 -4 0 -70 -11 -146 -25 -148 -26 -229 -33 -138 -10 29 7
64 22 77 35 105 99 -3 253 -138 196 -58 -24 -85 -106 -54 -166 12 -24 11 -26
-58 -69 -264 -165 -406 -251 -413 -251 -4 0 -13 78 -19 172 l-11 172 56 52
c31 28 68 70 82 93 14 22 29 41 33 41 17 0 -6 -67 -50 -148 l-45 -83 40 20
c83 42 137 117 188 256 6 19 7 18 14 -5 10 -33 11 -143 1 -203 l-8 -48 25 23
c55 52 89 170 78 272 -9 86 11 59 32 -42 9 -45 21 -82 26 -82 5 0 6 36 4 80
-3 44 -1 80 4 80 5 0 18 -16 29 -35 32 -54 42 -44 37 38 -3 58 -13 94 -51 182
-73 171 -118 226 -207 257 -17 5 -6 7 34 4 94 -7 135 -56 224 -266 41 -99 113
-220 129 -220 14 0 -34 315 -58 377 -14 38 -3 40 16 2 20 -38 47 -119 70 -209
20 -78 64 -180 78 -180 6 0 8 23 4 60 -3 33 -3 60 -2 60 2 0 13 -20 23 -44 11
-24 36 -68 57 -97 l37 -54 -5 65 c-5 53 -54 266 -82 355 -4 14 -1 12 9 -5 8
-14 34 -81 57 -150 45 -134 98 -247 131 -277 l21 -18 -8 68 c-3 38 -19 119
-35 180 -15 62 -27 114 -25 116 5 5 30 -56 76 -189 38 -106 94 -220 110 -220
7 0 -4 69 -20 127 -14 49 2 40 29 -17 13 -27 36 -69 52 -92 l28 -43 0 30 c0
17 -20 87 -44 158 -25 70 -42 127 -40 127 3 0 17 -26 31 -57 15 -32 50 -98 78
-148 29 -49 64 -112 78 -140 25 -48 26 -49 27 -19 0 17 -11 64 -25 104 -27 80
-30 96 -13 65 24 -44 141 -215 144 -212 7 6 -36 138 -59 182 -137 270 -455
501 -839 609 -68 19 -136 37 -151 41 -37 8 -106 72 -177 165 -65 84 -92 110
-118 110 -15 1 -15 2 2 15 33 25 4 17 -53 -15 -68 -38 -72 -37 -35 1 56 59
216 119 318 119 54 0 51 15 -7 40 -28 13 -47 25 -40 27 6 2 43 -10 82 -26 51
-23 85 -31 127 -31 73 0 66 9 -66 80 -115 62 -83 61 82 -3 62 -25 126 -48 142
-51 26 -7 28 -6 16 9 -7 9 -47 38 -89 66 -41 27 -70 49 -65 49 6 0 55 -18 110
-40 120 -49 194 -72 194 -60 0 12 -148 110 -166 110 -8 0 -14 4 -14 9 0 4 55
0 122 -10 67 -11 123 -17 125 -15 3 2 -28 20 -69 40 -50 25 -95 39 -143 44
l-70 8 64 14 c49 10 60 15 45 21 -42 17 -143 9 -224 -17 -45 -14 -84 -23 -86
-21 -3 3 39 28 93 56 l98 52 -66 -4 c-77 -5 -156 -38 -234 -96 -74 -55 -81
-58 -55 -22 20 29 61 64 155 135 24 19 13 19 -42 1z m-524 -599 c48 -25 65
-91 36 -145 -14 -28 -68 -61 -99 -61 -14 0 -16 -19 -16 -151 l0 -151 48 35
c53 40 64 67 31 82 -30 13 -33 28 -12 54 15 19 23 21 44 12 41 -15 59 -39 59
-78 0 -30 -8 -44 -44 -79 -25 -23 -70 -61 -101 -84 -31 -23 -59 -48 -62 -56
-17 -45 -23 10 -23 219 0 190 -3 237 -15 253 -8 10 -15 38 -15 60 0 36 5 47
35 73 40 35 87 41 134 17z"/>
<path d="M7196 7448 c4 -7 31 -49 59 -93 29 -44 64 -102 80 -128 l27 -48 -28
-40 c-16 -23 -57 -85 -91 -138 -34 -53 -66 -100 -71 -106 -6 -6 2 -40 19 -87
112 -305 160 -622 139 -909 -40 -527 -243 -982 -609 -1361 l-74 -78 219 0 219
0 61 83 c192 258 327 518 405 778 209 702 105 1443 -287 2041 -35 54 -66 98
-69 98 -4 0 -3 -6 1 -12z m359 -1104 c-52 -274 -56 -294 -59 -294 -1 0 -29 30
-61 66 -32 37 -50 62 -39 56 10 -5 28 -20 38 -31 19 -21 45 -28 47 -13 0 4 2
21 3 37 1 17 5 37 9 45 3 8 11 35 17 60 6 25 15 54 20 65 19 44 31 118 21 128
-6 6 -12 9 -14 6 -41 -52 -57 -81 -57 -108 0 -28 -2 -30 -19 -20 -14 10 -26 8
-58 -11 -80 -45 -61 -13 58 98 67 62 124 110 126 108 2 -2 -12 -89 -32 -192z"/>
<path d="M6218 7047 c37 -9 42 -13 42 -38 0 -36 -19 -42 -50 -15 l-24 21 14
-21 c103 -149 146 -208 188 -257 48 -56 111 -111 119 -103 6 6 -43 99 -108
207 -105 173 -91 173 40 1 196 -259 256 -284 111 -46 -22 35 -40 67 -40 71 0
4 62 -54 138 -129 75 -74 147 -141 160 -147 l23 -12 -15 35 c-22 52 -66 114
-125 174 -29 28 -49 52 -45 52 4 0 44 -20 90 -45 45 -25 85 -45 89 -45 15 0
-41 64 -88 100 -113 84 -289 161 -450 195 -76 17 -136 18 -69 2z"/>
<path d="M5912 6923 c61 -114 96 -161 140 -187 29 -18 31 -18 24 -1 -5 14 2
11 29 -10 20 -15 39 -24 42 -21 3 3 -7 40 -22 82 -29 80 -123 232 -134 217 -3
-5 -22 -19 -43 -31 l-36 -22 -22 35 c-41 66 -30 35 22 -62z"/>
<path d="M5847 6974 c4 -20 -21 -74 -36 -74 -3 0 -15 14 -26 30 -11 16 -23 30
-27 30 -3 0 25 -47 63 -104 50 -74 79 -109 103 -120 36 -17 66 -21 66 -8 0 6
-115 214 -139 252 -7 12 -8 10 -4 -6z"/>
<path d="M6176 6965 c4 -23 0 -38 -17 -59 l-23 -29 -24 29 c-28 34 -27 30 16
-58 34 -68 121 -175 121 -148 0 8 -6 31 -13 51 -12 35 -11 34 50 -28 34 -35
66 -63 72 -63 18 0 -44 127 -110 224 -76 113 -80 118 -72 81z"/>
<path d="M4899 6393 c5 -10 28 -36 50 -58 23 -21 41 -45 41 -53 0 -27 -105
-130 -131 -128 -10 1 -44 28 -75 61 -38 41 -44 45 -17 13 21 -26 73 -85 116
-131 l77 -84 0 -606 c0 -372 -4 -635 -11 -682 -6 -48 -26 -115 -54 -181 l-44
-104 130 0 131 0 -7 878 -7 877 -94 95 c-52 53 -94 101 -94 108 0 6 -5 12 -10
12 -7 0 -7 -6 -1 -17z"/>
<path d="M4679 6214 c39 -50 52 -84 31 -84 -14 0 -12 -27 3 -33 7 -3 5 -6 -5
-6 -9 -1 -22 -9 -27 -18 -6 -10 -11 -12 -11 -5 0 21 -20 13 -20 -8 0 -11 -7
-20 -15 -20 -8 0 -15 3 -15 8 0 4 -9 13 -21 20 -18 12 -19 11 -10 -5 12 -22
71 -78 130 -123 l43 -34 -6 -85 c-4 -47 -9 -87 -11 -89 -2 -2 -36 16 -77 41
-115 68 -190 109 -194 104 -3 -2 2 -10 11 -17 16 -13 21 -50 6 -50 -21 0 -106
67 -105 83 2 21 0 21 -15 3 -14 -16 39 -55 259 -193 l115 -72 0 -41 c0 -22 -1
-40 -2 -40 -11 0 -393 240 -419 263 -32 28 -33 30 -19 57 8 16 15 45 15 65 0
36 -27 102 -37 92 -3 -3 2 -16 11 -29 33 -47 13 -132 -36 -151 -24 -9 -23 2 5
32 l22 25 -29 -22 c-16 -12 -36 -22 -46 -22 -28 0 -68 38 -73 68 l-4 27 -2
-26 c-2 -36 33 -77 69 -81 22 -2 27 -6 21 -17 -13 -20 -58 -6 -92 29 -31 31
-39 81 -18 123 10 21 10 21 -5 3 -20 -25 -20 -78 -1 -116 16 -32 61 -60 94
-60 18 0 38 -17 30 -24 -2 -2 -56 4 -119 14 -185 28 -222 31 -115 8 95 -21 98
-22 65 -31 l-35 -9 25 -14 25 -15 -25 5 c-53 10 -201 28 -205 24 -5 -5 379
-68 415 -68 27 0 163 -83 153 -94 -4 -3 -13 -6 -22 -6 -9 0 -29 -7 -45 -15
-26 -14 -30 -13 -57 9 -16 13 -42 27 -59 31 -35 8 -87 -2 -96 -17 -4 -7 -2 -8
5 -4 6 4 21 4 32 1 20 -7 19 -8 -11 -33 -19 -17 -34 -41 -39 -62 -8 -43 -24
-42 -32 2 l-6 33 -2 -38 c-1 -32 5 -45 32 -72 19 -19 46 -37 61 -41 41 -10 97
16 124 58 20 29 39 42 109 69 l86 33 54 -29 c30 -15 85 -47 121 -71 l67 -43
-7 -158 c-17 -388 -29 -558 -41 -569 -7 -7 -91 -56 -187 -110 -96 -53 -188
-106 -205 -116 -30 -18 -26 -18 223 -18 l253 0 45 97 c25 54 49 117 54 140 6
24 12 327 14 680 l4 637 -88 96 c-48 52 -104 113 -125 135 -37 40 -37 40 4
-11z"/>
<path d="M2820 5027 c0 -4 22 -52 49 -106 54 -106 179 -299 258 -396 l49 -60
219 -3 220 -2 -86 87 c-77 79 -162 176 -227 259 -20 26 -21 26 -11 4 10 -22 7
-21 -27 11 -22 20 -53 45 -70 57 l-31 22 5 -48 c4 -40 3 -45 -9 -35 -8 6 -25
11 -39 10 -14 -1 -66 10 -117 23 l-92 24 -45 81 c-25 44 -46 77 -46 72z"/>
<path d="M5000 4341 c106 -6 113 -7 94 -21 -12 -9 -24 -27 -25 -40 -2 -14 -11
-28 -19 -32 -8 -4 -73 -8 -145 -9 l-130 -2 90 -8 c50 -4 613 -7 1252 -8 l1162
-1 63 56 c35 31 65 60 66 65 2 5 -508 8 -1260 7 -694 -1 -1211 -4 -1148 -7z"/>
<path d="M4555 4140 c-38 -4 -56 -7 -40 -8 68 -5 97 -24 55 -37 -11 -4 -18
-10 -15 -15 3 -5 0 -12 -6 -15 -5 -4 -8 -13 -5 -21 4 -12 -22 -14 -157 -16
l-162 -2 195 -6 c107 -4 733 -8 1391 -9 l1196 -2 82 62 c45 34 84 65 87 70 6
10 -2512 9 -2621 -1z"/>
<path d="M3679 3900 c47 -22 231 -80 326 -104 482 -119 1571 -127 2140 -15
119 24 279 68 390 109 l80 29 -1490 0 -1490 1 44 -20z"/>
<path d="M4768 3347 c-52 -44 -63 -105 -27 -151 63 -80 188 -69 225 19 19 47
8 89 -33 125 -28 25 -42 30 -86 30 -39 0 -58 -6 -79 -23z"/>
<path d="M5770 3353 c-56 -38 -72 -91 -45 -147 22 -45 60 -66 121 -66 41 0 51
5 85 39 32 32 39 46 39 78 0 45 -20 77 -60 98 -39 20 -110 19 -140 -2z"/>
<path d="M2370 2844 l0 -495 288 3 c275 3 290 4 347 27 73 29 145 98 163 157
27 92 9 189 -46 247 -29 31 -92 67 -117 67 -8 0 -15 5 -15 10 0 6 5 10 11 10
25 0 103 75 121 118 16 34 19 61 16 117 -5 97 -34 142 -120 184 -87 42 -158
51 -420 51 l-228 0 0 -496z m471 316 c50 -14 71 -41 77 -98 3 -41 0 -52 -23
-80 -34 -41 -77 -52 -202 -52 l-103 0 0 120 0 120 108 0 c59 0 123 -5 143 -10z
m21 -400 c52 -15 88 -61 88 -113 0 -102 -65 -137 -252 -137 l-108 0 0 130 0
130 118 0 c64 0 134 -5 154 -10z"/>
<path d="M5280 3246 l-105 -21 -3 -82 -3 -83 -59 0 -60 0 0 -80 0 -80 59 0 59
0 4 -202 c3 -187 5 -207 26 -249 49 -101 188 -143 352 -108 l50 11 0 72 0 73
-81 -1 c-77 -1 -82 0 -105 27 -23 27 -24 32 -24 203 l0 174 105 0 105 0 0 80
0 80 -105 0 -104 0 -3 103 -3 104 -105 -21z"/>
<path d="M4469 3042 c-30 -15 -63 -42 -74 -60 -11 -17 -23 -31 -27 -32 -5 0
-8 25 -8 55 l0 55 -104 0 -104 0 0 -355 0 -355 109 0 109 0 0 223 0 223 33 31
c44 43 79 55 162 52 l70 -2 3 96 3 97 -59 0 c-46 0 -72 -7 -113 -28z"/>
<path d="M3292 2788 l3 -273 30 -60 c41 -81 99 -118 195 -123 85 -5 147 14
218 68 l52 40 0 -45 0 -45 105 0 105 0 0 355 0 355 -110 0 -110 0 0 -227 c0
-264 -4 -278 -87 -315 -63 -28 -118 -20 -155 22 l-28 30 0 245 0 245 -111 0
-110 0 3 -272z"/>
<path d="M4740 2705 l0 -355 110 0 110 0 0 355 0 355 -110 0 -110 0 0 -355z"/>
<path d="M5731 2705 l2 -355 109 0 108 0 -2 353 -3 352 -108 3 -108 3 2 -356z"/>
</g>
</svg>
