<svg xmlns="http://www.w3.org/2000/svg" width="1024" height="1024" viewBox="0 0 1024 1024">
<g>
<path d="M 470.99 580.34 C464.03,581.07 446.73,580.94 434.66,580.07 L 426.82 579.50 L 438.16 573.07 C444.40,569.53 454.00,564.09 459.50,560.97 L 469.50 555.29 L 470.15 546.40 C470.51,541.50 471.35,525.37 472.02,510.55 L 473.24 483.61 L 470.61 481.51 C469.17,480.35 463.88,477.07 458.88,474.20 L 449.77 468.99 L 440.89 472.20 C435.30,474.22 431.80,476.06 431.45,477.15 C431.15,478.10 429.34,480.25 427.42,481.94 C423.22,485.62 418.15,486.00 413.23,483.00 C409.49,480.72 408.00,477.58 408.00,471.95 C408.00,462.74 419.11,457.82 427.29,463.41 C429.48,464.90 430.49,465.65 431.58,465.80 C432.63,465.93 433.75,465.50 436.07,464.61 C436.30,464.52 436.54,464.43 436.79,464.34 L 441.15 462.67 L 434.41 458.34 C429.63,455.26 426.62,454.00 424.05,454.00 C422.06,454.00 413.70,452.90 405.47,451.55 C386.24,448.39 384.30,448.35 379.54,450.89 C377.36,452.05 374.61,453.00 373.44,453.00 C370.37,453.00 364.93,449.05 362.67,445.17 C361.01,442.34 360.89,441.30 361.84,438.13 C363.36,433.05 367.87,428.96 372.64,428.33 C377.44,427.71 382.58,430.85 385.46,436.18 L 387.41 439.81 L 404.26 442.51 C420.40,445.11 426.72,445.35 418.17,443.05 C410.65,441.02 406.17,432.44 409.39,426.21 C411.76,421.64 415.69,419.00 420.13,419.00 L 424.00 419.00 L 423.95 411.75 L 423.91 404.50 L 421.20 407.98 C419.72,409.89 417.05,413.04 415.28,414.98 L 412.05 418.50 L 412.03 415.33 C412.01,413.54 413.52,409.42 415.51,405.83 C417.44,402.35 422.21,393.04 426.09,385.14 C434.28,368.52 438.97,362.69 445.89,360.56 L 450.50 359.14 L 446.57 359.07 C441.33,358.98 434.99,362.17 431.33,366.76 C429.68,368.82 424.19,378.94 419.11,389.25 C414.04,399.56 409.39,408.00 408.79,408.00 C406.71,408.00 409.83,383.49 413.59,370.25 C413.95,369.01 413.97,368.00 413.64,368.00 C412.44,368.00 409.99,374.04 406.51,385.61 C402.83,397.86 398.92,407.32 397.06,408.46 C396.37,408.89 396.00,407.43 395.99,404.31 L 395.98 399.50 L 392.74 405.14 C390.96,408.24 388.50,412.07 387.28,413.64 L 385.06 416.50 L 385.03 412.98 C385.00,409.47 388.19,395.80 392.09,382.68 C393.22,378.90 393.95,375.61 393.71,375.37 C393.04,374.71 389.40,383.66 385.51,395.54 C381.81,406.84 377.51,415.35 373.88,418.57 L 371.70 420.50 L 372.31 414.00 C372.64,410.42 374.03,403.23 375.41,398.00 C376.78,392.77 378.18,387.38 378.52,386.00 L 379.13 383.50 L 377.60 386.00 C376.76,387.38 374.42,393.45 372.40,399.50 C367.96,412.79 365.09,418.68 361.47,422.00 L 358.73 424.50 L 359.45 420.50 C361.25,410.47 361.18,410.33 357.63,417.06 C353.65,424.59 351.00,427.47 351.00,424.25 C351.00,423.16 352.34,417.61 353.97,411.93 C355.61,406.26 356.78,401.44 356.57,401.24 C356.37,401.04 352.95,407.42 348.97,415.42 C344.99,423.42 341.05,430.54 340.21,431.24 C338.85,432.36 338.75,431.85 339.34,426.84 C339.70,423.72 340.28,420.34 340.61,419.34 C340.95,418.33 338.72,421.18 335.65,425.67 C327.03,438.29 326.49,437.96 331.66,423.25 C335.36,412.69 340.85,404.86 352.86,392.96 C369.68,376.29 388.95,365.03 413.13,357.73 L 427.38 353.44 L 427.74 350.22 C428.18,346.41 428.13,346.40 423.59,349.08 C421.65,350.22 419.61,350.88 419.05,350.53 C418.49,350.18 416.00,351.09 413.51,352.54 L 409.00 355.19 L 409.00 352.97 C409.00,350.81 412.92,343.02 420.47,330.18 C422.51,326.70 423.98,323.64 423.72,323.39 C422.88,322.55 417.54,329.77 412.50,338.59 C409.75,343.39 405.57,349.39 403.21,351.91 L 398.91 356.50 L 399.54 353.25 C399.88,351.46 399.80,350.00 399.36,350.00 C398.93,350.00 396.43,352.11 393.81,354.69 C391.19,357.27 388.73,359.06 388.34,358.68 C387.25,357.58 392.85,346.67 400.18,335.60 C403.85,330.06 406.69,325.36 406.49,325.16 C405.69,324.36 403.83,326.44 398.35,334.28 C387.07,350.42 377.10,361.44 375.35,359.69 C374.53,358.86 377.76,352.19 383.82,342.19 C387.05,336.86 390.23,331.38 390.90,330.00 C392.69,326.28 384.68,335.20 379.21,343.00 C374.01,350.43 368.80,356.23 364.60,359.26 L 361.69 361.35 L 362.42 358.43 C362.82,356.82 365.13,352.15 367.55,348.06 C369.98,343.97 371.81,340.47 371.62,340.29 C371.43,340.10 366.27,344.89 360.15,350.94 C350.30,360.68 343.58,365.92 342.44,364.77 C341.53,363.86 346.62,355.57 352.08,349.07 C355.34,345.18 357.77,342.00 357.47,342.00 C357.18,342.00 354.59,343.23 351.72,344.74 C344.36,348.60 343.00,349.09 343.00,347.90 C343.00,346.23 349.98,340.04 357.07,335.42 C367.58,328.57 379.18,323.78 395.00,319.77 C401.94,318.01 406.52,317.60 420.00,317.55 C438.24,317.49 450.07,318.99 459.75,322.59 C463.19,323.87 466.00,324.71 466.00,324.47 C466.00,323.47 453.60,317.87 448.26,316.45 C441.59,314.69 422.48,312.00 416.61,312.00 C411.71,312.00 412.36,311.21 421.05,306.52 C429.29,302.08 427.48,302.07 415.76,306.49 C410.67,308.41 405.42,309.99 404.10,309.99 C401.71,310.00 401.71,309.98 403.60,307.88 C404.64,306.71 407.88,304.41 410.80,302.76 C413.71,301.11 415.92,299.59 415.72,299.39 C415.51,299.18 411.56,300.41 406.92,302.13 C386.53,309.66 382.62,308.24 399.85,299.56 C402.79,298.08 404.99,296.66 404.74,296.40 C404.48,296.15 401.09,296.43 397.20,297.04 C393.30,297.64 388.63,297.97 386.81,297.78 C383.65,297.43 383.85,297.24 391.50,293.50 C395.90,291.35 399.65,289.23 399.83,288.80 C400.36,287.53 410.83,287.87 418.99,289.43 C423.11,290.22 426.64,290.69 426.84,290.49 C427.04,290.29 423.90,288.41 419.85,286.31 L 412.50 282.50 L 417.33 282.19 C422.59,281.86 430.58,285.00 439.73,291.01 C444.16,293.92 443.98,293.64 437.16,287.07 C430.96,281.10 430.18,280.00 432.16,280.02 C437.90,280.08 449.67,288.84 456.85,298.40 C458.05,300.00 459.26,301.07 459.55,300.79 C459.83,300.50 457.75,296.81 454.92,292.58 C452.09,288.35 450.01,284.65 450.30,284.37 C451.05,283.62 456.00,286.47 459.59,289.71 C461.29,291.24 465.07,295.42 467.98,299.00 C473.75,306.09 483.00,315.21 483.00,313.82 C483.00,313.35 481.25,311.05 479.10,308.73 C476.96,306.40 475.27,304.19 475.35,303.81 C475.43,303.43 473.59,301.48 471.25,299.48 C465.21,294.31 465.60,293.02 473.25,292.90 L 479.50 292.80 L 471.37 291.07 C462.91,289.26 456.54,285.77 459.58,284.61 C460.45,284.27 465.96,283.99 471.83,283.97 C484.91,283.93 483.45,282.50 469.50,281.68 C460.89,281.18 456.12,280.18 449.00,277.38 C445.80,276.12 451.66,275.14 463.00,275.04 C476.28,274.92 476.23,273.42 462.90,272.47 C455.37,271.93 447.91,270.77 442.65,269.31 C438.34,268.12 443.49,266.65 453.53,266.20 C459.36,265.94 463.76,265.38 463.32,264.95 C462.87,264.53 457.33,263.67 451.00,263.05 C440.30,262.00 432.00,259.75 432.00,257.91 C432.00,257.48 434.14,256.83 436.75,256.48 C443.93,255.52 443.96,255.40 437.50,253.57 C434.20,252.63 430.22,251.38 428.66,250.77 C421.59,248.05 434.51,247.29 448.00,249.63 L 451.50 250.24 L 447.00 246.87 C442.59,243.57 442.56,243.49 445.17,243.19 C448.18,242.84 456.15,246.57 460.86,250.53 C464.78,253.83 464.81,253.04 461.00,246.85 C455.52,237.94 457.43,237.66 466.41,246.07 C472.73,251.97 472.87,252.05 471.85,248.82 C469.22,240.46 469.37,240.14 473.99,244.50 C476.33,246.70 479.53,251.20 481.12,254.50 C483.93,260.36 484.00,260.42 483.99,257.00 C483.98,255.07 483.31,251.29 482.49,248.59 C481.67,245.89 481.00,242.78 481.00,241.69 C481.00,239.75 481.06,239.74 483.02,241.52 C486.26,244.45 490.98,255.04 491.71,261.01 C492.25,265.47 492.51,266.03 493.09,264.00 C493.48,262.62 493.85,258.66 493.90,255.19 C493.96,251.70 494.40,249.13 494.91,249.44 C496.64,250.51 498.98,259.34 499.67,267.39 C500.38,275.58 501.68,275.20 501.90,266.75 C502.15,257.23 505.91,266.91 506.76,279.27 C507.05,283.55 507.61,287.26 508.01,287.51 C508.41,287.75 509.04,283.57 509.42,278.23 C510.24,266.69 512.24,257.34 514.97,252.22 L 516.95 248.50 L 516.31 259.91 C515.89,267.54 516.02,271.11 516.70,270.69 C517.26,270.34 517.98,267.91 518.30,265.28 C519.59,254.82 525.65,242.61 531.35,239.03 C534.40,237.10 534.44,238.63 531.51,245.17 C528.71,251.41 525.75,261.09 526.44,261.78 C526.65,261.98 528.45,259.08 530.44,255.32 C532.43,251.57 535.06,247.38 536.28,246.00 C539.04,242.90 543.97,239.00 545.15,239.00 C545.63,239.00 544.40,242.26 542.41,246.25 L 538.80 253.50 L 543.92 247.82 C549.12,242.04 555.19,237.56 557.00,238.17 C557.55,238.35 556.43,240.72 554.50,243.43 C552.58,246.14 551.00,248.73 551.00,249.19 C551.00,249.65 553.42,248.41 556.38,246.45 C561.52,243.04 570.79,239.45 571.82,240.48 C572.09,240.75 571.03,241.99 569.46,243.24 C563.58,247.92 563.29,248.23 565.50,247.49 C569.17,246.27 586.62,245.69 588.49,246.73 C590.27,247.73 586.95,249.01 573.00,252.72 C569.62,253.61 569.74,253.67 576.24,254.40 C579.95,254.82 583.20,255.52 583.48,255.96 C584.36,257.38 572.84,260.94 561.00,262.91 C550.24,264.69 549.88,264.82 555.50,264.91 C564.95,265.07 575.18,266.23 574.30,267.04 C572.55,268.65 562.00,270.90 553.00,271.57 C538.92,272.62 537.66,273.85 550.50,274.01 C556.55,274.08 562.35,274.48 563.40,274.89 C565.04,275.53 564.80,275.87 561.63,277.37 C556.98,279.58 545.86,281.96 540.00,282.00 C537.53,282.02 534.83,282.47 534.00,283.00 C532.99,283.65 536.51,283.97 544.87,283.98 C556.01,284.00 557.11,284.16 555.94,285.57 C554.36,287.48 547.65,291.00 545.60,291.00 C544.78,291.00 543.90,291.35 543.64,291.77 C543.38,292.19 544.93,292.37 547.08,292.16 C550.07,291.88 551.00,292.15 551.00,293.29 C551.00,294.72 546.47,299.15 542.40,301.69 C540.66,302.78 540.74,302.89 543.37,302.94 L 546.24 303.00 L 543.80 306.25 C540.83,310.20 539.74,312.00 540.31,312.00 C540.55,312.00 544.39,307.11 548.86,301.13 C553.33,295.15 558.73,288.51 560.86,286.38 C564.51,282.74 572.95,277.61 573.83,278.50 C574.06,278.72 572.22,281.29 569.75,284.20 C565.19,289.58 561.47,295.81 562.32,296.65 C562.57,296.90 564.90,294.41 567.50,291.10 C572.44,284.82 581.67,278.12 588.26,276.03 C594.47,274.06 594.72,275.40 588.95,279.71 C583.24,283.98 573.46,293.77 578.00,290.68 C579.38,289.74 582.75,287.42 585.50,285.51 C590.93,281.76 599.33,278.52 606.39,277.46 C614.26,276.28 613.60,278.04 604.47,282.54 C592.89,288.26 592.07,289.38 601.62,286.43 C606.83,284.83 611.88,284.01 616.50,284.02 C623.97,284.03 628.43,285.44 623.95,286.37 C615.37,288.14 615.25,288.31 621.97,289.13 C626.01,289.63 630.83,291.14 634.77,293.14 C645.08,298.37 644.52,298.82 630.50,296.51 C617.22,294.33 616.79,294.56 625.07,299.41 C632.37,303.68 635.80,306.54 634.80,307.53 C634.11,308.22 629.26,306.56 610.25,299.09 C607.36,297.96 605.00,297.19 605.00,297.40 C605.00,297.60 607.87,299.64 611.38,301.92 C617.78,306.09 622.13,310.00 620.37,310.00 C619.31,310.00 609.59,306.68 597.25,302.11 C592.71,300.43 589.00,299.25 589.00,299.50 C589.00,299.75 592.38,301.80 596.50,304.07 C600.63,306.33 605.02,309.03 606.25,310.06 C608.50,311.93 608.50,311.93 602.37,311.97 C598.00,311.99 594.70,311.31 590.87,309.60 C582.88,306.02 579.71,305.52 585.90,308.82 C588.88,310.40 590.90,311.93 590.40,312.23 C589.91,312.53 586.58,313.10 583.00,313.50 C571.16,314.83 559.30,319.63 554.50,325.04 C553.40,326.28 552.95,327.09 553.50,326.85 C554.05,326.60 556.97,325.21 560.00,323.75 C576.03,316.01 604.35,313.99 627.50,318.93 C642.99,322.23 658.77,328.71 669.77,336.27 C676.72,341.06 683.63,347.70 682.67,348.67 C682.41,348.92 678.52,347.27 674.00,345.00 L 665.80 340.88 L 671.87 347.93 C677.74,354.75 679.99,358.20 682.00,363.51 L 682.96 366.03 L 679.79 364.39 C678.04,363.49 672.29,358.42 667.01,353.12 C661.73,347.83 656.13,342.38 654.57,341.00 L 651.74 338.50 L 654.92 344.00 C668.74,367.93 664.05,366.28 644.07,340.20 C638.93,333.49 634.29,328.00 633.75,328.00 C633.21,328.00 633.42,329.01 634.22,330.25 C640.95,340.72 651.00,358.85 651.00,360.53 C651.00,360.85 649.61,360.30 647.91,359.31 C643.97,357.01 634.42,345.82 627.58,335.50 C622.71,328.15 618.00,322.69 618.00,324.39 C618.00,324.78 620.17,328.33 622.81,332.30 C631.85,345.82 638.06,358.00 635.93,358.00 C635.35,358.00 632.39,355.65 629.35,352.77 L 623.82 347.54 L 624.52 351.27 C624.91,353.32 624.98,355.00 624.67,355.00 C622.85,355.00 616.27,346.13 612.06,338.00 C609.36,332.77 605.54,326.95 603.57,325.05 C599.09,320.73 599.03,321.63 603.38,327.75 C609.01,335.65 616.24,352.09 614.75,353.58 C614.41,353.92 613.17,353.53 612.00,352.71 C610.83,351.89 609.01,351.45 607.96,351.72 C606.58,352.08 604.49,350.61 600.52,346.48 C597.48,343.32 595.00,340.32 595.00,339.82 C595.00,338.34 585.82,322.85 585.27,323.40 C584.64,324.02 589.86,334.64 594.41,342.00 C596.28,345.02 598.10,348.51 598.47,349.75 C599.03,351.65 598.75,352.00 596.72,352.00 C593.28,352.00 586.40,346.69 584.10,342.26 C580.38,335.09 573.07,326.06 570.46,325.40 C566.58,324.43 566.32,325.69 569.68,329.26 C571.35,331.04 574.52,334.98 576.71,338.00 C581.99,345.26 589.20,351.80 592.69,352.49 C643.66,362.60 687.36,394.99 696.32,429.30 C697.14,432.44 697.52,435.00 697.16,435.00 C696.79,434.99 693.46,430.47 689.75,424.95 C686.04,419.42 683.00,415.28 683.00,415.74 C683.00,416.19 683.90,419.13 685.00,422.26 C686.10,425.39 687.00,429.41 687.00,431.20 C687.00,433.93 685.73,432.18 678.90,419.97 C674.45,412.01 669.94,403.52 668.88,401.11 C665.90,394.33 665.56,396.96 668.48,404.14 C671.41,411.33 674.00,420.68 674.00,424.04 C674.00,425.98 673.59,425.73 671.08,422.27 C669.47,420.05 666.97,416.04 665.53,413.37 C664.02,410.57 663.13,409.56 663.45,411.00 C663.75,412.38 664.28,415.98 664.63,419.00 L 665.28 424.50 L 663.28 422.00 C660.26,418.22 658.24,413.87 654.52,403.20 C650.68,392.17 647.30,384.00 646.58,384.00 C646.31,384.00 646.73,385.82 647.52,388.05 C649.32,393.16 653.00,412.07 653.00,416.23 L 653.00 419.35 L 650.70 417.19 C647.35,414.05 642.79,404.25 638.04,390.06 C635.76,383.22 633.43,376.92 632.87,376.06 C631.67,374.20 631.78,374.74 636.05,391.00 C637.71,397.33 639.33,405.65 639.66,409.50 L 640.26 416.50 L 637.21 412.37 C635.53,410.09 633.02,406.04 631.63,403.37 L 629.09 398.50 L 629.05 403.58 C629.02,406.38 628.71,408.96 628.35,409.31 C627.31,410.36 623.09,400.32 619.82,389.00 C616.49,377.50 613.01,367.66 612.45,368.22 C612.26,368.41 613.20,373.95 614.54,380.53 C616.97,392.47 618.78,408.00 617.74,408.00 C616.25,408.00 609.14,396.43 605.45,388.00 C598.76,372.73 597.17,369.66 593.82,365.60 C590.24,361.26 585.63,358.96 580.78,359.09 L 577.50 359.18 L 580.79 360.13 C585.25,361.42 591.33,367.72 594.85,374.72 C601.76,388.45 605.27,398.37 605.30,404.28 C605.34,411.23 603.85,413.46 602.05,409.13 C601.37,407.49 600.18,405.90 599.41,405.60 C598.27,405.17 598.00,406.52 598.00,412.53 C598.00,416.64 597.63,420.00 597.17,420.00 C596.71,420.00 595.57,416.41 594.63,412.03 C593.69,407.65 592.60,403.87 592.21,403.63 C591.82,403.39 591.49,407.32 591.47,412.35 C591.44,420.15 591.04,422.31 588.79,427.00 C585.85,433.11 582.44,437.78 581.56,436.90 C581.25,436.58 581.44,433.94 582.00,431.03 C583.14,424.98 583.16,416.68 582.04,413.00 C581.33,410.67 581.23,410.64 580.59,412.50 C578.61,418.33 572.60,428.99 569.73,431.77 C566.79,434.62 558.93,439.25 558.22,438.55 C558.07,438.40 559.78,435.09 562.02,431.19 C564.27,427.30 566.38,422.40 566.71,420.31 L 567.31 416.50 L 563.27 421.50 C561.05,424.25 557.34,428.30 555.03,430.50 L 550.82 434.50 L 551.53 449.98 C551.91,458.49 552.53,466.25 552.89,467.23 C553.46,468.76 555.76,467.65 569.52,459.19 L 570.24 458.74 C597.79,441.81 600.77,439.98 600.56,438.62 C600.54,438.44 600.46,438.27 600.37,438.08 C598.82,434.63 598.85,428.20 600.43,425.14 C606.04,414.28 624.00,418.89 624.00,431.19 C624.00,432.23 623.12,434.80 622.04,436.91 C620.05,440.82 614.57,444.00 609.81,444.00 C608.63,444.00 607.94,444.28 608.28,444.61 C608.62,444.95 616.15,443.97 625.01,442.44 L 641.12 439.65 L 642.44 436.49 C645.18,429.93 653.14,426.47 658.79,429.39 C664.10,432.14 666.26,435.83 665.74,441.28 C665.20,447.02 662.27,450.58 656.91,452.02 C652.90,453.10 648.90,452.13 645.79,449.31 C645.55,449.09 645.34,448.90 645.11,448.74 C643.54,447.63 640.88,448.06 617.28,451.93 L 616.00 452.14 C598.92,454.94 597.08,455.44 592.00,458.76 L 586.50 462.35 L 590.50 464.15 C595.77,466.52 596.67,466.46 600.18,463.50 C609.48,455.68 623.86,466.68 618.65,477.62 C616.72,481.65 611.67,484.99 607.50,484.99 C603.55,484.99 598.47,481.81 596.59,478.17 C595.08,475.25 591.36,473.26 582.21,470.48 L 577.91 469.17 L 565.38 476.23 L 552.84 483.28 L 553.41 488.89 C553.72,491.98 554.48,504.11 555.09,515.85 C555.71,527.59 556.50,541.28 556.86,546.27 L 557.50 555.35 L 578.18 566.93 C589.55,573.29 599.18,578.84 599.59,579.25 C600.00,579.66 588.34,580.00 573.68,580.00 L 547.03 580.00 L 545.42 576.25 C544.54,574.19 542.72,568.22 541.37,563.00 C539.22,554.64 538.81,550.09 537.98,525.00 C536.12,468.52 534.99,430.39 535.00,424.40 L 535.00 418.30 L 549.25 406.10 C560.42,396.53 563.93,394.04 565.50,394.55 C573.00,397.01 578.75,395.32 581.59,389.82 C583.54,386.06 582.98,379.74 580.46,376.96 C577.76,373.97 572.59,372.65 568.65,373.95 C563.27,375.72 560.50,379.39 560.50,384.73 L 560.50 389.29 L 546.14 401.40 C538.24,408.05 531.06,414.07 530.19,414.76 C528.73,415.91 528.75,421.61 530.35,480.76 C531.31,516.37 532.56,549.33 533.14,554.00 C533.71,558.67 535.44,566.42 536.97,571.20 C538.50,575.99 539.51,580.15 539.21,580.45 C538.91,580.75 534.02,581.00 528.33,581.00 L 518.00 581.00 L 518.00 544.25 C517.99,524.04 517.52,483.92 516.94,455.10 L 515.89 402.69 L 505.96 392.10 L 496.03 381.50 L 496.02 367.23 C496.00,353.12 496.03,352.94 498.37,352.05 C502.36,350.53 505.00,346.24 505.00,341.27 C505.00,337.56 504.47,336.31 501.89,333.90 C499.42,331.59 497.87,331.00 494.29,331.00 C490.52,331.00 489.26,331.54 486.40,334.40 C483.88,336.92 483.00,338.67 483.00,341.15 C483.01,345.20 486.09,350.58 488.93,351.48 C490.91,352.11 491.00,352.83 491.00,368.38 L 491.00 384.63 L 494.12 387.56 C495.84,389.18 500.31,393.96 504.07,398.20 L 510.89 405.89 L 510.96 492.84 C511.01,571.43 510.86,579.84 509.43,580.39 C507.45,581.15 485.00,581.20 485.00,580.45 C485.00,580.15 486.86,575.54 489.12,570.21 C496.18,553.63 496.25,552.63 495.49,483.06 L 494.81 421.63 L 483.37 409.56 C471.80,397.37 469.46,393.63 472.15,391.59 C474.81,389.57 477.00,385.58 477.00,382.73 C477.00,376.49 471.61,371.00 465.50,371.00 C459.62,371.00 453.99,376.48 454.00,382.20 C454.01,385.68 457.74,391.08 460.99,392.30 C462.64,392.92 464.13,394.37 464.45,395.67 C464.77,396.92 470.41,403.92 476.99,411.22 L 488.96 424.50 L 488.54 488.50 C488.32,523.70 487.83,554.08 487.45,556.00 C487.08,557.92 484.63,564.04 482.02,569.59 L 477.27 579.69 ZM 354.40 570.75 L 361.45 578.00 L 339.47 578.00 L 317.50 578.00 L 314.50 574.29 C292.14,546.62 275.07,513.19 266.55,480.40 C260.50,457.13 259.50,447.83 259.58,416.00 C259.59,414.25 259.59,412.60 259.59,411.05 C259.61,398.75 259.63,392.49 260.31,386.29 C261.10,379.07 262.80,371.95 266.49,355.50 C269.46,342.26 276.23,324.24 283.98,308.93 C294.75,287.66 302.21,276.28 306.00,275.34 C307.38,275.00 309.00,274.33 309.61,273.85 C310.56,273.11 313.71,272.80 327.42,272.10 C328.47,272.04 329.05,271.71 328.69,271.36 C328.34,271.01 328.71,269.55 329.52,268.11 C330.33,266.67 331.43,264.25 331.98,262.73 C332.52,261.21 334.00,259.57 335.27,259.09 C336.54,258.60 338.18,257.49 338.91,256.60 C340.68,254.48 342.09,254.56 341.35,256.75 C340.93,257.98 341.25,257.84 342.39,256.31 C344.00,254.16 347.95,240.28 347.98,236.70 C348.04,230.23 358.78,220.39 379.56,207.77 C450.30,164.79 543.30,160.17 620.50,195.78 C647.55,208.26 670.69,224.58 693.06,246.94 C718.96,272.85 738.01,301.53 749.21,331.50 C756.70,351.53 759.93,363.83 763.66,386.50 C766.21,402.00 766.21,438.97 763.66,454.50 C758.23,487.63 749.46,513.36 734.56,539.89 C730.01,547.99 716.70,567.64 710.26,575.77 C708.48,578.02 708.29,578.04 686.51,577.77 L 664.55 577.50 L 671.12 571.00 C678.30,563.89 689.75,550.23 694.80,542.75 C696.56,540.14 699.35,536.02 701.01,533.59 C705.49,527.02 716.30,504.84 720.41,493.76 C729.64,468.88 733.40,444.90 732.74,415.00 C732.22,391.58 729.83,376.98 723.01,355.58 C715.58,332.29 704.76,311.42 689.97,291.89 C655.98,247.00 607.92,217.41 552.00,206.94 C537.33,204.19 505.14,203.19 488.72,204.96 C461.21,207.94 438.92,214.45 413.50,226.95 C396.01,235.54 385.31,242.31 371.48,253.52 C361.97,261.22 339.52,283.68 336.41,288.61 C335.40,290.20 332.75,293.98 330.51,297.00 C324.59,305.01 320.11,312.73 312.25,328.50 C287.39,378.35 285.90,451.12 308.68,502.50 C321.70,531.85 333.04,548.78 354.40,570.75 ZM 295.50 787.64 C291.93,788.60 282.87,788.98 263.75,788.99 L 237.00 789.00 L 237.00 689.81 L 264.25 690.24 C289.10,690.63 292.02,690.86 297.40,692.83 C309.40,697.23 313.96,703.34 313.96,715.00 C313.96,723.19 311.67,728.41 305.96,733.31 C303.58,735.34 301.27,737.00 300.82,737.00 C298.77,737.00 300.29,738.81 302.75,739.30 C307.23,740.20 313.57,745.48 315.87,750.23 C318.48,755.62 318.77,766.23 316.45,771.78 C313.36,779.20 305.86,784.87 295.50,787.64 ZM 734.45 596.35 L 727.84 602.00 L 296.07 602.00 L 292.31 598.75 C286.32,593.56 284.02,590.62 285.11,589.51 C286.54,588.05 740.21,588.14 740.70,589.60 C740.90,590.21 738.09,593.25 734.45,596.35 ZM 702.58 621.71 C700.97,622.66 657.71,622.93 510.50,622.95 L 320.50 622.96 L 313.68 616.83 C308.70,612.36 307.22,610.48 308.18,609.87 C309.92,608.76 717.00,608.75 717.00,609.85 C717.00,610.73 706.27,619.56 702.58,621.71 ZM 753.27 789.33 C746.56,791.32 732.32,792.07 723.00,790.93 C716.07,790.07 700.71,786.56 698.82,785.39 C697.93,784.84 697.66,765.00 698.53,765.00 C698.83,765.00 701.34,766.15 704.13,767.56 C714.28,772.71 734.97,775.52 744.07,773.00 C751.54,770.92 755.14,762.99 751.00,757.73 C747.95,753.85 745.28,752.68 730.19,748.59 C714.88,744.44 708.98,741.70 703.79,736.34 C699.20,731.58 697.00,725.56 697.00,717.74 C697.00,705.40 701.53,698.44 713.06,693.08 C725.86,687.12 747.39,686.77 765.25,692.22 L 772.00 694.28 L 772.00 703.64 C772.00,708.79 771.60,713.00 771.12,713.00 C770.64,713.00 768.57,712.30 766.51,711.44 C753.81,706.13 735.08,704.42 727.50,707.86 C722.15,710.30 720.81,712.14 721.19,716.58 C721.69,722.53 726.07,725.28 741.74,729.44 C768.18,736.46 776.91,744.04 776.91,760.00 C776.91,768.37 775.48,773.37 771.66,778.38 C768.65,782.33 760.50,787.18 753.27,789.33 ZM 555.00 652.98 C539.23,653.87 485.03,654.10 472.50,653.33 C427.01,650.52 403.01,646.54 376.00,637.31 C375.07,637.00 374.17,636.70 373.32,636.42 C370.06,635.34 367.60,634.53 367.65,633.92 C367.80,632.06 391.30,632.07 486.54,632.10 C494.66,632.11 503.30,632.11 512.50,632.11 L 661.50 632.14 L 655.00 634.66 C630.24,644.25 594.98,650.71 555.00,652.98 ZM 637.00 750.00 L 637.00 789.00 L 613.98 789.00 L 614.24 739.75 L 614.50 690.50 L 686.00 689.97 L 686.00 698.38 C686.00,705.12 685.69,706.91 684.42,707.39 C683.55,707.73 672.52,708.00 659.92,708.00 L 637.00 708.00 L 637.00 732.00 L 683.00 732.00 L 683.00 748.75 L 679.88 749.38 C678.16,749.72 667.81,750.00 656.88,750.00 ZM 366.57 788.62 C362.67,790.44 359.77,790.98 354.00,790.99 C345.11,791.00 339.56,788.72 334.98,783.17 C329.72,776.78 329.00,772.01 329.00,743.60 L 329.00 718.00 L 351.00 718.00 L 351.00 741.43 C351.00,754.32 351.44,766.02 351.98,767.43 C353.55,771.59 358.70,774.21 363.96,773.54 C369.11,772.89 375.20,769.06 376.86,765.42 C377.61,763.77 378.00,755.18 378.00,740.45 L 378.00 718.00 L 400.00 718.00 L 400.00 789.00 L 379.00 789.00 L 379.00 779.79 L 375.32 783.03 C373.29,784.81 369.35,787.32 366.57,788.62 ZM 555.56 789.88 C550.60,791.13 538.24,791.21 533.24,790.02 C527.54,788.67 522.00,784.24 519.67,779.18 C517.75,774.98 517.49,772.41 517.17,754.25 L 516.82 734.00 L 505.00 734.00 L 505.00 718.00 L 517.00 718.00 L 517.00 701.45 L 525.75 699.65 C530.56,698.66 535.51,697.65 536.75,697.41 C538.97,696.97 539.00,697.11 539.00,707.48 L 539.00 718.00 L 560.00 718.00 L 560.00 734.00 L 539.00 734.00 L 539.00 751.28 C539.00,770.58 539.40,771.99 545.49,774.00 C547.62,774.70 551.12,774.88 554.49,774.46 L 560.00 773.77 L 560.00 788.76 ZM 437.00 744.69 L 437.00 789.00 L 415.00 789.00 L 415.00 718.00 L 425.38 718.00 C436.77,718.00 436.95,718.11 436.99,725.10 L 437.00 727.69 L 440.85 724.03 C446.31,718.84 450.76,717.00 457.90,717.00 L 464.00 717.00 L 464.00 736.00 L 457.62 736.00 C448.20,736.00 445.19,736.90 440.89,740.99 ZM 496.00 718.00 L 496.00 789.00 L 474.00 789.00 L 474.00 718.00 ZM 595.00 718.00 L 595.00 789.00 L 573.00 789.00 L 573.00 718.00 ZM 454.88 456.96 C464.95,463.03 473.37,468.00 473.60,468.00 C473.82,468.00 473.99,466.31 473.98,464.25 C473.96,460.68 473.63,460.31 467.23,456.57 C456.64,450.38 438.64,438.47 437.13,436.65 C436.03,435.33 436.00,434.70 437.00,433.50 C439.28,430.75 440.64,431.32 464.96,445.18 C469.61,447.83 473.77,450.00 474.21,450.00 C474.64,450.00 474.99,446.06 474.98,441.25 L 474.96 432.50 L 468.89 428.00 C465.56,425.52 461.67,422.15 460.25,420.50 L 457.68 417.50 L 458.38 420.34 C458.77,421.90 460.86,426.00 463.04,429.45 C466.69,435.23 467.80,438.00 466.47,438.00 C466.17,438.00 463.75,436.89 461.08,435.54 C455.58,432.75 450.00,426.75 447.25,420.64 L 446.92 419.92 C444.84,415.30 443.84,413.09 443.43,413.20 C443.05,413.29 443.16,415.29 443.35,419.10 L 443.39 419.75 C443.85,428.73 443.07,429.88 439.29,425.75 C436.46,422.66 434.31,418.16 433.44,413.55 L 432.71 409.67 L 430.81 413.38 C429.76,415.43 427.97,417.44 426.84,417.86 C424.84,418.60 424.86,418.68 427.37,420.32 C431.28,422.88 433.27,427.46 432.49,432.09 C432.12,434.23 431.42,436.24 430.91,436.55 C429.00,437.74 430.13,441.00 433.29,443.41 C435.09,444.78 444.81,450.88 454.88,456.96 ZM 259.00 747.00 L 259.00 773.20 L 271.75 772.82 C289.95,772.27 295.00,769.24 295.00,758.88 C295.00,755.79 294.34,754.19 292.17,752.02 C288.28,748.13 283.40,747.01 270.25,747.01 ZM 522.68 398.35 C523.06,398.73 524.75,397.76 526.43,396.19 C528.12,394.63 532.57,390.95 536.33,388.02 C545.58,380.81 547.57,375.16 542.30,371.02 C538.57,368.09 534.60,368.65 534.19,372.16 C533.96,374.13 534.42,375.00 535.94,375.48 C539.34,376.56 538.32,379.66 533.32,383.48 C529.83,386.15 528.44,386.73 527.84,385.77 C527.39,385.07 527.02,378.31 527.02,370.75 L 527.00 357.00 L 529.35 357.00 C532.56,357.00 538.21,353.03 539.85,349.63 C541.77,345.63 540.55,340.64 536.89,337.56 C533.46,334.67 530.46,334.36 525.60,336.39 C519.58,338.91 517.01,345.99 520.47,350.56 C521.66,352.13 521.94,356.81 521.97,375.08 C521.99,387.50 522.31,397.97 522.68,398.35 ZM 259.00 706.79 L 259.00 731.00 L 268.75 730.99 C280.42,730.99 285.39,729.77 289.17,725.98 C293.98,721.17 292.44,712.00 286.32,709.01 C284.58,708.15 278.84,707.47 271.25,707.21 ZM 590.99 708.51 C587.33,710.40 580.32,710.36 576.76,708.43 C571.51,705.59 569.60,698.61 572.52,692.97 C574.55,689.03 578.82,687.00 585.05,687.00 C589.57,687.00 590.61,687.41 593.60,690.40 C596.43,693.23 597.00,694.53 597.00,698.18 C597.00,703.18 595.15,706.35 590.99,708.51 ZM 491.81 707.97 C480.19,715.06 466.88,702.90 474.27,691.93 C478.75,685.29 488.98,684.64 494.55,690.65 C499.43,695.91 498.13,704.12 491.81,707.97 ZM 520.02 316.97 C520.00,319.22 520.47,318.97 525.54,313.97 C531.85,307.74 532.93,305.07 530.59,301.49 C528.93,298.96 524.88,298.16 522.23,299.84 C520.04,301.23 519.05,306.54 520.48,309.29 C521.25,310.79 521.42,312.31 520.90,313.13 C520.42,313.89 520.02,315.61 520.02,316.97 ZM 494.50 314.90 C496.70,316.53 498.81,317.89 499.19,317.93 C502.48,318.26 498.42,309.81 494.89,308.98 C491.77,308.25 490.90,304.00 493.87,304.00 C494.98,304.00 496.51,304.90 497.28,305.99 C498.05,307.09 498.98,307.69 499.34,307.33 C500.68,305.99 499.94,302.56 497.83,300.31 C493.60,295.82 487.00,298.40 487.00,304.54 C487.00,308.22 488.77,310.67 494.50,314.90 ZM 370.00 445.00 C373.96,448.96 380.00,446.25 380.00,440.50 C380.00,434.73 374.35,432.16 370.19,436.04 C367.46,438.58 367.38,442.38 370.00,445.00 ZM 606.56 434.78 C609.51,439.00 618.00,436.33 618.00,431.19 C618.00,428.32 614.25,425.00 611.02,425.00 C608.01,425.00 605.00,428.00 605.00,431.00 C605.00,431.86 605.70,433.56 606.56,434.78 ZM 603.17 476.69 C604.37,477.96 606.40,479.00 607.67,479.00 C610.53,479.00 614.00,475.71 614.00,473.00 C614.00,467.69 605.58,464.91 602.56,469.22 C600.45,472.22 600.60,473.94 603.17,476.69 ZM 650.17 445.40 C653.29,447.59 655.54,447.41 658.00,444.76 C660.73,441.84 660.22,438.23 656.70,435.62 C654.13,433.70 653.70,433.66 651.20,435.05 C647.46,437.15 646.86,443.09 650.17,445.40 ZM 415.56 476.78 C418.67,481.22 426.00,478.51 426.00,472.92 C426.00,469.44 423.64,467.00 420.26,467.00 C414.86,467.00 412.36,472.21 415.56,476.78 ZM 416.13 434.44 C418.47,437.42 422.44,437.81 425.17,435.35 C427.57,433.17 427.50,429.50 425.00,427.00 C419.74,421.74 411.54,428.61 416.13,434.44 ZM 434.67 348.75 C432.99,350.54 431.99,352.00 432.45,352.00 C434.28,352.00 442.31,344.49 446.18,339.15 C448.44,336.04 451.88,331.81 453.84,329.75 C457.18,326.23 457.27,326.00 455.14,326.00 C451.26,326.00 449.49,327.63 443.52,336.70 C440.33,341.54 436.35,346.96 434.67,348.75 ZM 575.43 388.43 C572.26,391.60 566.00,389.11 566.00,384.67 C566.00,382.59 569.48,379.00 571.50,379.00 C573.62,379.00 577.00,382.64 577.00,384.93 C577.00,385.99 576.29,387.56 575.43,388.43 ZM 465.50 353.06 C469.58,354.72 469.37,353.88 465.00,351.13 C459.71,347.81 458.31,346.28 457.85,343.30 C457.53,341.28 457.07,341.51 452.42,345.96 L 447.34 350.82 L 455.42 351.54 C459.86,351.93 464.40,352.62 465.50,353.06 ZM 469.80 385.80 C467.20,388.40 460.00,386.47 460.00,383.17 C460.00,380.36 462.94,377.00 465.40,377.00 C469.74,377.00 472.69,382.91 469.80,385.80 ZM 555.00 351.56 C555.00,351.85 556.69,351.73 558.75,351.30 C560.81,350.86 565.31,350.52 568.75,350.55 C572.19,350.57 575.00,350.56 575.00,350.51 C575.00,350.47 572.48,347.97 569.40,344.97 C563.82,339.52 563.80,339.51 564.47,342.70 C565.11,345.75 564.91,346.01 560.07,348.47 C557.28,349.88 555.00,351.27 555.00,351.56 ZM 498.56 344.93 C494.61,349.30 487.68,345.66 489.59,340.22 C490.38,337.97 491.15,337.50 493.99,337.50 C496.67,337.50 497.75,338.08 498.93,340.18 C500.30,342.63 500.27,343.04 498.56,344.93 ZM 533.39 349.70 C532.42,350.42 530.87,351.00 529.96,351.00 C527.52,351.00 524.79,347.50 525.17,344.85 C525.58,342.00 530.24,340.04 532.80,341.64 C535.23,343.16 535.59,348.09 533.39,349.70 ZM 495.46 287.51 C500.23,294.68 501.06,294.54 496.95,287.25 C492.87,280.01 487.31,273.65 480.74,268.72 C471.92,262.08 471.21,262.44 479.00,269.60 C489.39,279.16 491.29,281.22 495.46,287.51 ZM 516.49 291.00 C515.49,294.39 516.16,293.54 520.03,286.50 C526.08,275.49 531.34,269.25 540.51,262.20 L 543.50 259.90 L 540.27 261.47 C534.33,264.34 524.46,274.59 520.74,281.75 C518.81,285.46 516.90,289.62 516.49,291.00 ZM 437.00 390.88 C437.00,393.89 438.84,390.42 441.93,381.61 C443.64,376.71 444.86,372.53 444.64,372.30 C443.31,370.97 437.00,386.31 437.00,390.88 ZM 432.02 333.65 C432.04,335.24 432.33,335.15 434.06,333.00 C436.51,329.96 440.28,322.95 439.76,322.43 C438.09,320.76 431.97,329.63 432.02,333.65 ZM 526.39 307.74 C525.82,308.64 524.83,309.56 524.18,309.77 C522.40,310.37 522.76,306.03 524.54,305.35 C526.68,304.53 527.64,305.77 526.39,307.74 Z" fill="rgb(188,61,94)"/>
<path d="M 0.00 512.00 L 0.00 0.00 L 512.00 0.00 L 1024.00 0.00 L 1024.00 512.00 L 1024.00 1024.00 L 512.00 1024.00 L 0.00 1024.00 L 0.00 512.00 ZM 753.27 789.33 C760.50,787.18 768.65,782.33 771.66,778.38 C775.48,773.37 776.91,768.37 776.91,760.00 C776.91,744.04 768.18,736.46 741.74,729.44 C726.07,725.28 721.69,722.53 721.19,716.58 C720.81,712.14 722.15,710.30 727.50,707.86 C735.08,704.42 753.81,706.13 766.51,711.44 C768.57,712.30 770.64,713.00 771.12,713.00 C771.60,713.00 772.00,708.79 772.00,703.64 L 772.00 694.28 L 765.25 692.22 C747.39,686.77 725.86,687.12 713.06,693.08 C701.53,698.44 697.00,705.40 697.00,717.74 C697.00,725.56 699.20,731.58 703.79,736.34 C708.98,741.70 714.88,744.44 730.19,748.59 C745.28,752.68 747.95,753.85 751.00,757.73 C755.14,762.99 751.54,770.92 744.07,773.00 C734.97,775.52 714.28,772.71 704.13,767.56 C701.34,766.15 698.83,765.00 698.53,765.00 C697.66,765.00 697.93,784.84 698.82,785.39 C700.71,786.56 716.07,790.07 723.00,790.93 C732.32,792.07 746.56,791.32 753.27,789.33 ZM 366.57 788.62 C369.35,787.32 373.29,784.81 375.32,783.03 L 379.00 779.79 L 379.00 784.40 L 379.00 789.00 L 389.50 789.00 L 400.00 789.00 L 400.00 753.50 L 400.00 718.00 L 389.00 718.00 L 378.00 718.00 L 378.00 740.45 C378.00,755.18 377.61,763.77 376.86,765.42 C375.20,769.06 369.11,772.89 363.96,773.54 C358.70,774.21 353.55,771.59 351.98,767.43 C351.44,766.02 351.00,754.32 351.00,741.43 L 351.00 718.00 L 340.00 718.00 L 329.00 718.00 L 329.00 743.60 C329.00,772.01 329.72,776.78 334.98,783.17 C339.56,788.72 345.11,791.00 354.00,790.99 C359.77,790.98 362.67,790.44 366.57,788.62 ZM 555.56 789.88 L 560.00 788.76 L 560.00 781.27 L 560.00 773.77 L 554.49 774.46 C551.12,774.88 547.62,774.70 545.49,774.00 C539.40,771.99 539.00,770.58 539.00,751.28 L 539.00 734.00 L 549.50 734.00 L 560.00 734.00 L 560.00 726.00 L 560.00 718.00 L 549.50 718.00 L 539.00 718.00 L 539.00 707.48 C539.00,697.11 538.97,696.97 536.75,697.41 C535.51,697.65 530.56,698.66 525.75,699.65 L 517.00 701.45 L 517.00 709.73 L 517.00 718.00 L 511.00 718.00 L 505.00 718.00 L 505.00 726.00 L 505.00 734.00 L 510.91 734.00 L 516.82 734.00 L 517.17 754.25 C517.49,772.41 517.75,774.98 519.67,779.18 C522.00,784.24 527.54,788.67 533.24,790.02 C538.24,791.21 550.60,791.13 555.56,789.88 ZM 295.50 787.64 C305.86,784.87 313.36,779.20 316.45,771.78 C318.77,766.23 318.48,755.62 315.87,750.23 C313.57,745.48 307.23,740.20 302.75,739.30 C300.29,738.81 298.77,737.00 300.82,737.00 C301.27,737.00 303.58,735.34 305.96,733.31 C311.67,728.41 313.96,723.19 313.96,715.00 C313.96,703.34 309.40,697.23 297.40,692.83 C292.02,690.86 289.10,690.63 264.25,690.24 L 237.00 689.81 L 237.00 739.41 L 237.00 789.00 L 263.75 788.99 C282.87,788.98 291.93,788.60 295.50,787.64 ZM 437.00 766.85 L 437.00 744.69 L 440.89 740.99 C445.19,736.90 448.20,736.00 457.62,736.00 L 464.00 736.00 L 464.00 726.50 L 464.00 717.00 L 457.90 717.00 C450.76,717.00 446.31,718.84 440.85,724.03 L 437.00 727.69 L 436.99 725.10 C436.95,718.11 436.77,718.00 425.38,718.00 L 415.00 718.00 L 415.00 753.50 L 415.00 789.00 L 426.00 789.00 L 437.00 789.00 L 437.00 766.85 ZM 496.00 753.50 L 496.00 718.00 L 485.00 718.00 L 474.00 718.00 L 474.00 753.50 L 474.00 789.00 L 485.00 789.00 L 496.00 789.00 L 496.00 753.50 ZM 595.00 753.50 L 595.00 718.00 L 584.00 718.00 L 573.00 718.00 L 573.00 753.50 L 573.00 789.00 L 584.00 789.00 L 595.00 789.00 L 595.00 753.50 ZM 637.00 769.50 L 637.00 750.00 L 656.88 750.00 C667.81,750.00 678.16,749.72 679.88,749.38 L 683.00 748.75 L 683.00 740.38 L 683.00 732.00 L 660.00 732.00 L 637.00 732.00 L 637.00 720.00 L 637.00 708.00 L 659.92 708.00 C672.52,708.00 683.55,707.73 684.42,707.39 C685.69,706.91 686.00,705.12 686.00,698.38 L 686.00 689.97 L 650.25 690.24 L 614.50 690.50 L 614.24 739.75 L 613.98 789.00 L 625.49 789.00 L 637.00 789.00 L 637.00 769.50 ZM 491.81 707.97 C498.13,704.12 499.43,695.91 494.55,690.65 C488.98,684.64 478.75,685.29 474.27,691.93 C466.88,702.90 480.19,715.06 491.81,707.97 ZM 590.99 708.51 C595.15,706.35 597.00,703.18 597.00,698.18 C597.00,694.53 596.43,693.23 593.60,690.40 C590.61,687.41 589.57,687.00 585.05,687.00 C578.82,687.00 574.55,689.03 572.52,692.97 C569.60,698.61 571.51,705.59 576.76,708.43 C580.32,710.36 587.33,710.40 590.99,708.51 ZM 555.00 652.98 C594.98,650.71 630.24,644.25 655.00,634.66 L 661.50 632.14 L 512.50 632.11 C350.96,632.08 359.70,631.74 376.00,637.31 C403.01,646.54 427.01,650.52 472.50,653.33 C485.03,654.10 539.23,653.87 555.00,652.98 ZM 702.58 621.71 C706.27,619.56 717.00,610.73 717.00,609.85 C717.00,608.75 309.92,608.76 308.18,609.87 C307.22,610.48 308.70,612.36 313.68,616.83 L 320.50 622.96 L 510.50 622.95 C657.71,622.93 700.97,622.66 702.58,621.71 ZM 734.45 596.35 C738.09,593.25 740.90,590.21 740.70,589.60 C740.21,588.14 286.54,588.05 285.11,589.51 C284.02,590.62 286.32,593.56 292.31,598.75 L 296.07 602.00 L 511.95 602.00 L 727.84 602.00 L 734.45 596.35 ZM 470.99 580.34 L 477.27 579.69 L 482.02 569.59 C484.63,564.04 487.08,557.92 487.45,556.00 C487.83,554.08 488.32,523.70 488.54,488.50 L 488.96 424.50 L 476.99 411.22 C470.41,403.92 464.77,396.92 464.45,395.67 C464.13,394.37 462.64,392.92 460.99,392.30 C457.74,391.08 454.01,385.68 454.00,382.20 C453.99,376.48 459.62,371.00 465.50,371.00 C471.61,371.00 477.00,376.49 477.00,382.73 C477.00,385.58 474.81,389.57 472.15,391.59 C469.46,393.63 471.80,397.37 483.37,409.56 L 494.81 421.63 L 495.49 483.06 C496.25,552.63 496.18,553.63 489.12,570.21 C486.86,575.54 485.00,580.15 485.00,580.45 C485.00,581.20 507.45,581.15 509.43,580.39 C510.86,579.84 511.01,571.43 510.96,492.84 L 510.89 405.89 L 504.07 398.20 C500.31,393.96 495.84,389.18 494.12,387.56 L 491.00 384.63 L 491.00 368.38 C491.00,352.83 490.91,352.11 488.93,351.48 C486.09,350.58 483.01,345.20 483.00,341.15 C483.00,338.67 483.88,336.92 486.40,334.40 C489.26,331.54 490.52,331.00 494.29,331.00 C497.87,331.00 499.42,331.59 501.89,333.90 C504.47,336.31 505.00,337.56 505.00,341.27 C505.00,346.24 502.36,350.53 498.37,352.05 C496.03,352.94 496.00,353.12 496.02,367.23 L 496.03 381.50 L 505.96 392.10 L 515.89 402.69 L 516.94 455.10 C517.52,483.92 517.99,524.04 518.00,544.25 L 518.00 581.00 L 528.33 581.00 C534.02,581.00 538.91,580.75 539.21,580.45 C539.51,580.15 538.50,575.99 536.97,571.20 C535.44,566.42 533.71,558.67 533.14,554.00 C532.56,549.33 531.31,516.37 530.35,480.76 C528.75,421.61 528.73,415.91 530.19,414.76 C531.06,414.07 538.24,408.05 546.14,401.40 L 560.50 389.29 L 560.50 384.73 C560.50,379.39 563.27,375.72 568.65,373.95 C572.59,372.65 577.76,373.97 580.46,376.96 C582.98,379.74 583.54,386.06 581.59,389.82 C578.75,395.32 573.00,397.01 565.50,394.55 C563.93,394.04 560.42,396.53 549.25,406.10 L 535.00 418.30 L 535.00 424.40 C534.99,430.39 536.12,468.52 537.98,525.00 C538.81,550.09 539.22,554.64 541.37,563.00 C542.72,568.22 544.54,574.19 545.42,576.25 L 547.03 580.00 L 573.68 580.00 C588.34,580.00 600.00,579.66 599.59,579.25 C599.18,578.84 589.55,573.29 578.18,566.93 L 557.50 555.35 L 556.86 546.27 C556.50,541.28 555.71,527.59 555.09,515.85 C554.48,504.11 553.72,491.98 553.41,488.89 L 552.84 483.28 L 565.38 476.23 L 577.91 469.17 L 582.21 470.48 C591.36,473.26 595.08,475.25 596.59,478.17 C598.47,481.81 603.55,484.99 607.50,484.99 C611.67,484.99 616.72,481.65 618.65,477.62 C623.86,466.68 609.48,455.68 600.18,463.50 C596.67,466.46 595.77,466.52 590.50,464.15 L 586.50 462.35 L 592.00 458.76 C597.08,455.44 598.92,454.94 616.00,452.14 C644.31,447.50 643.84,447.55 645.79,449.31 C648.90,452.13 652.90,453.10 656.91,452.02 C662.27,450.58 665.20,447.02 665.74,441.28 C666.26,435.83 664.10,432.14 658.79,429.39 C653.14,426.47 645.18,429.93 642.44,436.49 L 641.12 439.65 L 625.01 442.44 C616.15,443.97 608.62,444.95 608.28,444.61 C607.94,444.28 608.63,444.00 609.81,444.00 C614.57,444.00 620.05,440.82 622.04,436.91 C623.12,434.80 624.00,432.23 624.00,431.19 C624.00,418.89 606.04,414.28 600.43,425.14 C598.85,428.20 598.82,434.63 600.37,438.08 C601.13,439.77 601.37,439.61 569.52,459.19 C555.76,467.65 553.46,468.76 552.89,467.23 C552.53,466.25 551.91,458.49 551.53,449.98 L 550.82 434.50 L 555.03 430.50 C557.34,428.30 561.05,424.25 563.27,421.50 L 567.31 416.50 L 566.71 420.31 C566.38,422.40 564.27,427.30 562.02,431.19 C559.78,435.09 558.07,438.40 558.22,438.55 C558.93,439.25 566.79,434.62 569.73,431.77 C572.60,428.99 578.61,418.33 580.59,412.50 C581.23,410.64 581.33,410.67 582.04,413.00 C583.16,416.68 583.14,424.98 582.00,431.03 C581.44,433.94 581.25,436.58 581.56,436.90 C582.44,437.78 585.85,433.11 588.79,427.00 C591.04,422.31 591.44,420.15 591.47,412.35 C591.49,407.32 591.82,403.39 592.21,403.63 C592.60,403.87 593.69,407.65 594.63,412.03 C595.57,416.41 596.71,420.00 597.17,420.00 C597.63,420.00 598.00,416.64 598.00,412.53 C598.00,406.52 598.27,405.17 599.41,405.60 C600.18,405.90 601.37,407.49 602.05,409.13 C603.85,413.46 605.34,411.23 605.30,404.28 C605.27,398.37 601.76,388.45 594.85,374.72 C591.33,367.72 585.25,361.42 580.79,360.13 L 577.50 359.18 L 580.78 359.09 C585.63,358.96 590.24,361.26 593.82,365.60 C597.17,369.66 598.76,372.73 605.45,388.00 C609.14,396.43 616.25,408.00 617.74,408.00 C618.78,408.00 616.97,392.47 614.54,380.53 C613.20,373.95 612.26,368.41 612.45,368.22 C613.01,367.66 616.49,377.50 619.82,389.00 C623.09,400.32 627.31,410.36 628.35,409.31 C628.71,408.96 629.02,406.38 629.05,403.58 L 629.09 398.50 L 631.63 403.37 C633.02,406.04 635.53,410.09 637.21,412.37 L 640.26 416.50 L 639.66 409.50 C639.33,405.65 637.71,397.33 636.05,391.00 C631.78,374.74 631.67,374.20 632.87,376.06 C633.43,376.92 635.76,383.22 638.04,390.06 C642.79,404.25 647.35,414.05 650.70,417.19 L 653.00 419.35 L 653.00 416.23 C653.00,412.07 649.32,393.16 647.52,388.05 C646.73,385.82 646.31,384.00 646.58,384.00 C647.30,384.00 650.68,392.17 654.52,403.20 C658.24,413.87 660.26,418.22 663.28,422.00 L 665.28 424.50 L 664.63 419.00 C664.28,415.98 663.75,412.38 663.45,411.00 C663.13,409.56 664.02,410.57 665.53,413.37 C666.97,416.04 669.47,420.05 671.08,422.27 C673.59,425.73 674.00,425.98 674.00,424.04 C674.00,420.68 671.41,411.33 668.48,404.14 C665.56,396.96 665.90,394.33 668.88,401.11 C669.94,403.52 674.45,412.01 678.90,419.97 C685.73,432.18 687.00,433.93 687.00,431.20 C687.00,429.41 686.10,425.39 685.00,422.26 C683.90,419.13 683.00,416.19 683.00,415.74 C683.00,415.28 686.04,419.42 689.75,424.95 C693.46,430.47 696.79,434.99 697.16,435.00 C697.52,435.00 697.14,432.44 696.32,429.30 C687.36,394.99 643.66,362.60 592.69,352.49 C589.20,351.80 581.99,345.26 576.71,338.00 C574.52,334.98 571.35,331.04 569.68,329.26 C566.32,325.69 566.58,324.43 570.46,325.40 C573.07,326.06 580.38,335.09 584.10,342.26 C586.40,346.69 593.28,352.00 596.72,352.00 C598.75,352.00 599.03,351.65 598.47,349.75 C598.10,348.51 596.28,345.02 594.41,342.00 C589.86,334.64 584.64,324.02 585.27,323.40 C585.82,322.85 595.00,338.34 595.00,339.82 C595.00,340.32 597.48,343.32 600.52,346.48 C604.49,350.61 606.58,352.08 607.96,351.72 C609.01,351.45 610.83,351.89 612.00,352.71 C613.17,353.53 614.41,353.92 614.75,353.58 C616.24,352.09 609.01,335.65 603.38,327.75 C599.03,321.63 599.09,320.73 603.57,325.05 C605.54,326.95 609.36,332.77 612.06,338.00 C616.27,346.13 622.85,355.00 624.67,355.00 C624.98,355.00 624.91,353.32 624.52,351.27 L 623.82 347.54 L 629.35 352.77 C632.39,355.65 635.35,358.00 635.93,358.00 C638.06,358.00 631.85,345.82 622.81,332.30 C620.17,328.33 618.00,324.78 618.00,324.39 C618.00,322.69 622.71,328.15 627.58,335.50 C634.42,345.82 643.97,357.01 647.91,359.31 C649.61,360.30 651.00,360.85 651.00,360.53 C651.00,358.85 640.95,340.72 634.22,330.25 C633.42,329.01 633.21,328.00 633.75,328.00 C634.29,328.00 638.93,333.49 644.07,340.20 C664.05,366.28 668.74,367.93 654.92,344.00 L 651.74 338.50 L 654.57 341.00 C656.13,342.38 661.73,347.83 667.01,353.12 C672.29,358.42 678.04,363.49 679.79,364.39 L 682.96 366.03 L 682.00 363.51 C679.99,358.20 677.74,354.75 671.87,347.93 L 665.80 340.88 L 674.00 345.00 C678.52,347.27 682.41,348.92 682.67,348.67 C683.63,347.70 676.72,341.06 669.77,336.27 C658.77,328.71 642.99,322.23 627.50,318.93 C604.35,313.99 576.03,316.01 560.00,323.75 C556.97,325.21 554.05,326.60 553.50,326.85 C552.95,327.09 553.40,326.28 554.50,325.04 C559.30,319.63 571.16,314.83 583.00,313.50 C586.58,313.10 589.91,312.53 590.40,312.23 C590.90,311.93 588.88,310.40 585.90,308.82 C579.71,305.52 582.88,306.02 590.87,309.60 C594.70,311.31 598.00,311.99 602.37,311.97 C608.50,311.93 608.50,311.93 606.25,310.06 C605.02,309.03 600.63,306.33 596.50,304.07 C592.38,301.80 589.00,299.75 589.00,299.50 C589.00,299.25 592.71,300.43 597.25,302.11 C609.59,306.68 619.31,310.00 620.37,310.00 C622.13,310.00 617.78,306.09 611.38,301.92 C607.87,299.64 605.00,297.60 605.00,297.40 C605.00,297.19 607.36,297.96 610.25,299.09 C629.26,306.56 634.11,308.22 634.80,307.53 C635.80,306.54 632.37,303.68 625.07,299.41 C616.79,294.56 617.22,294.33 630.50,296.51 C644.52,298.82 645.08,298.37 634.77,293.14 C630.83,291.14 626.01,289.63 621.97,289.13 C615.25,288.31 615.37,288.14 623.95,286.37 C628.43,285.44 623.97,284.03 616.50,284.02 C611.88,284.01 606.83,284.83 601.62,286.43 C592.07,289.38 592.89,288.26 604.47,282.54 C613.60,278.04 614.26,276.28 606.39,277.46 C599.33,278.52 590.93,281.76 585.50,285.51 C582.75,287.42 579.38,289.74 578.00,290.68 C573.46,293.77 583.24,283.98 588.95,279.71 C594.72,275.40 594.47,274.06 588.26,276.03 C581.67,278.12 572.44,284.82 567.50,291.10 C564.90,294.41 562.57,296.90 562.32,296.65 C561.47,295.81 565.19,289.58 569.75,284.20 C572.22,281.29 574.06,278.72 573.83,278.50 C572.95,277.61 564.51,282.74 560.86,286.38 C558.73,288.51 553.33,295.15 548.86,301.13 C544.39,307.11 540.55,312.00 540.31,312.00 C539.74,312.00 540.83,310.20 543.80,306.25 L 546.24 303.00 L 543.37 302.94 C540.74,302.89 540.66,302.78 542.40,301.69 C546.47,299.15 551.00,294.72 551.00,293.29 C551.00,292.15 550.07,291.88 547.08,292.16 C544.93,292.37 543.38,292.19 543.64,291.77 C543.90,291.35 544.78,291.00 545.60,291.00 C547.65,291.00 554.36,287.48 555.94,285.57 C557.11,284.16 556.01,284.00 544.87,283.98 C536.51,283.97 532.99,283.65 534.00,283.00 C534.83,282.47 537.53,282.02 540.00,282.00 C545.86,281.96 556.98,279.58 561.63,277.37 C564.80,275.87 565.04,275.53 563.40,274.89 C562.35,274.48 556.55,274.08 550.50,274.01 C537.66,273.85 538.92,272.62 553.00,271.57 C562.00,270.90 572.55,268.65 574.30,267.04 C575.18,266.23 564.95,265.07 555.50,264.91 C549.88,264.82 550.24,264.69 561.00,262.91 C572.84,260.94 584.36,257.38 583.48,255.96 C583.20,255.52 579.95,254.82 576.24,254.40 C569.74,253.67 569.62,253.61 573.00,252.72 C586.95,249.01 590.27,247.73 588.49,246.73 C586.62,245.69 569.17,246.27 565.50,247.49 C563.29,248.23 563.58,247.92 569.46,243.24 C571.03,241.99 572.09,240.75 571.82,240.48 C570.79,239.45 561.52,243.04 556.38,246.45 C553.42,248.41 551.00,249.65 551.00,249.19 C551.00,248.73 552.58,246.14 554.50,243.43 C556.43,240.72 557.55,238.35 557.00,238.17 C555.19,237.56 549.12,242.04 543.92,247.82 L 538.80 253.50 L 542.41 246.25 C544.40,242.26 545.63,239.00 545.15,239.00 C543.97,239.00 539.04,242.90 536.28,246.00 C535.06,247.38 532.43,251.57 530.44,255.32 C528.45,259.08 526.65,261.98 526.44,261.78 C525.75,261.09 528.71,251.41 531.51,245.17 C534.44,238.63 534.40,237.10 531.35,239.03 C525.65,242.61 519.59,254.82 518.30,265.28 C517.98,267.91 517.26,270.34 516.70,270.69 C516.02,271.11 515.89,267.54 516.31,259.91 L 516.95 248.50 L 514.97 252.22 C512.24,257.34 510.24,266.69 509.42,278.23 C509.04,283.57 508.41,287.75 508.01,287.51 C507.61,287.26 507.05,283.55 506.76,279.27 C505.91,266.91 502.15,257.23 501.90,266.75 C501.68,275.20 500.38,275.58 499.67,267.39 C498.98,259.34 496.64,250.51 494.91,249.44 C494.40,249.13 493.96,251.70 493.90,255.19 C493.85,258.66 493.48,262.62 493.09,264.00 C492.51,266.03 492.25,265.47 491.71,261.01 C490.98,255.04 486.26,244.45 483.02,241.52 C481.06,239.74 481.00,239.75 481.00,241.69 C481.00,242.78 481.67,245.89 482.49,248.59 C483.31,251.29 483.98,255.07 483.99,257.00 C484.00,260.42 483.93,260.36 481.12,254.50 C479.53,251.20 476.33,246.70 473.99,244.50 C469.37,240.14 469.22,240.46 471.85,248.82 C472.87,252.05 472.73,251.97 466.41,246.07 C457.43,237.66 455.52,237.94 461.00,246.85 C464.81,253.04 464.78,253.83 460.86,250.53 C456.15,246.57 448.18,242.84 445.17,243.19 C442.56,243.49 442.59,243.57 447.00,246.87 L 451.50 250.24 L 448.00 249.63 C434.51,247.29 421.59,248.05 428.66,250.77 C430.22,251.38 434.20,252.63 437.50,253.57 C443.96,255.40 443.93,255.52 436.75,256.48 C434.14,256.83 432.00,257.48 432.00,257.91 C432.00,259.75 440.30,262.00 451.00,263.05 C457.33,263.67 462.87,264.53 463.32,264.95 C463.76,265.38 459.36,265.94 453.53,266.20 C443.49,266.65 438.34,268.12 442.65,269.31 C447.91,270.77 455.37,271.93 462.90,272.47 C476.23,273.42 476.28,274.92 463.00,275.04 C451.66,275.14 445.80,276.12 449.00,277.38 C456.12,280.18 460.89,281.18 469.50,281.68 C483.45,282.50 484.91,283.93 471.83,283.97 C465.96,283.99 460.45,284.27 459.58,284.61 C456.54,285.77 462.91,289.26 471.37,291.07 L 479.50 292.80 L 473.25 292.90 C465.60,293.02 465.21,294.31 471.25,299.48 C473.59,301.48 475.43,303.43 475.35,303.81 C475.27,304.19 476.96,306.40 479.10,308.73 C481.25,311.05 483.00,313.35 483.00,313.82 C483.00,315.21 473.75,306.09 467.98,299.00 C465.07,295.42 461.29,291.24 459.59,289.71 C456.00,286.47 451.05,283.62 450.30,284.37 C450.01,284.65 452.09,288.35 454.92,292.58 C457.75,296.81 459.83,300.50 459.55,300.79 C459.26,301.07 458.05,300.00 456.85,298.40 C449.67,288.84 437.90,280.08 432.16,280.02 C430.18,280.00 430.96,281.10 437.16,287.07 C443.98,293.64 444.16,293.92 439.73,291.01 C430.58,285.00 422.59,281.86 417.33,282.19 L 412.50 282.50 L 419.85 286.31 C423.90,288.41 427.04,290.29 426.84,290.49 C426.64,290.69 423.11,290.22 418.99,289.43 C410.83,287.87 400.36,287.53 399.83,288.80 C399.65,289.23 395.90,291.35 391.50,293.50 C383.85,297.24 383.65,297.43 386.81,297.78 C388.63,297.97 393.30,297.64 397.20,297.04 C401.09,296.43 404.48,296.15 404.74,296.40 C404.99,296.66 402.79,298.08 399.85,299.56 C382.62,308.24 386.53,309.66 406.92,302.13 C411.56,300.41 415.51,299.18 415.72,299.39 C415.92,299.59 413.71,301.11 410.80,302.76 C407.88,304.41 404.64,306.71 403.60,307.88 C401.71,309.98 401.71,310.00 404.10,309.99 C405.42,309.99 410.67,308.41 415.76,306.49 C427.48,302.07 429.29,302.08 421.05,306.52 C412.36,311.21 411.71,312.00 416.61,312.00 C422.48,312.00 441.59,314.69 448.26,316.45 C453.60,317.87 466.00,323.47 466.00,324.47 C466.00,324.71 463.19,323.87 459.75,322.59 C450.07,318.99 438.24,317.49 420.00,317.55 C406.52,317.60 401.94,318.01 395.00,319.77 C379.18,323.78 367.58,328.57 357.07,335.42 C349.98,340.04 343.00,346.23 343.00,347.90 C343.00,349.09 344.36,348.60 351.72,344.74 C354.59,343.23 357.18,342.00 357.47,342.00 C357.77,342.00 355.34,345.18 352.08,349.07 C346.62,355.57 341.53,363.86 342.44,364.77 C343.58,365.92 350.30,360.68 360.15,350.94 C366.27,344.89 371.43,340.10 371.62,340.29 C371.81,340.47 369.98,343.97 367.55,348.06 C365.13,352.15 362.82,356.82 362.42,358.43 L 361.69 361.35 L 364.60 359.26 C368.80,356.23 374.01,350.43 379.21,343.00 C384.68,335.20 392.69,326.28 390.90,330.00 C390.23,331.38 387.05,336.86 383.82,342.19 C377.76,352.19 374.53,358.86 375.35,359.69 C377.10,361.44 387.07,350.42 398.35,334.28 C403.83,326.44 405.69,324.36 406.49,325.16 C406.69,325.36 403.85,330.06 400.18,335.60 C392.85,346.67 387.25,357.58 388.34,358.68 C388.73,359.06 391.19,357.27 393.81,354.69 C396.43,352.11 398.93,350.00 399.36,350.00 C399.80,350.00 399.88,351.46 399.54,353.25 L 398.91 356.50 L 403.21 351.91 C405.57,349.39 409.75,343.39 412.50,338.59 C417.54,329.77 422.88,322.55 423.72,323.39 C423.98,323.64 422.51,326.70 420.47,330.18 C412.92,343.02 409.00,350.81 409.00,352.97 L 409.00 355.19 L 413.51 352.54 C416.00,351.09 418.49,350.18 419.05,350.53 C419.61,350.88 421.65,350.22 423.59,349.08 C428.13,346.40 428.18,346.41 427.74,350.22 L 427.38 353.44 L 413.13 357.73 C388.95,365.03 369.68,376.29 352.86,392.96 C340.85,404.86 335.36,412.69 331.66,423.25 C326.49,437.96 327.03,438.29 335.65,425.67 C338.72,421.18 340.95,418.33 340.61,419.34 C340.28,420.34 339.70,423.72 339.34,426.84 C338.75,431.85 338.85,432.36 340.21,431.24 C341.05,430.54 344.99,423.42 348.97,415.42 C352.95,407.42 356.37,401.04 356.57,401.24 C356.78,401.44 355.61,406.26 353.97,411.93 C352.34,417.61 351.00,423.16 351.00,424.25 C351.00,427.47 353.65,424.59 357.63,417.06 C361.18,410.33 361.25,410.47 359.45,420.50 L 358.73 424.50 L 361.47 422.00 C365.09,418.68 367.96,412.79 372.40,399.50 C374.42,393.45 376.76,387.38 377.60,386.00 L 379.13 383.50 L 378.52 386.00 C378.18,387.38 376.78,392.77 375.41,398.00 C374.03,403.23 372.64,410.42 372.31,414.00 L 371.70 420.50 L 373.88 418.57 C377.51,415.35 381.81,406.84 385.51,395.54 C389.40,383.66 393.04,374.71 393.71,375.37 C393.95,375.61 393.22,378.90 392.09,382.68 C388.19,395.80 385.00,409.47 385.03,412.98 L 385.06 416.50 L 387.28 413.64 C388.50,412.07 390.96,408.24 392.74,405.14 L 395.98 399.50 L 395.99 404.31 C396.00,407.43 396.37,408.89 397.06,408.46 C398.92,407.32 402.83,397.86 406.51,385.61 C409.99,374.04 412.44,368.00 413.64,368.00 C413.97,368.00 413.95,369.01 413.59,370.25 C409.83,383.49 406.71,408.00 408.79,408.00 C409.39,408.00 414.04,399.56 419.11,389.25 C424.19,378.94 429.68,368.82 431.33,366.76 C434.99,362.17 441.33,358.98 446.57,359.07 L 450.50 359.14 L 445.89 360.56 C438.97,362.69 434.28,368.52 426.09,385.14 C422.21,393.04 417.44,402.35 415.51,405.83 C413.52,409.42 412.01,413.54 412.03,415.33 L 412.05 418.50 L 415.28 414.98 C417.05,413.04 419.72,409.89 421.20,407.98 L 423.91 404.50 L 423.95 411.75 L 424.00 419.00 L 420.13 419.00 C415.69,419.00 411.76,421.64 409.39,426.21 C406.17,432.44 410.65,441.02 418.17,443.05 C426.72,445.35 420.40,445.11 404.26,442.51 L 387.41 439.81 L 385.46 436.18 C382.58,430.85 377.44,427.71 372.64,428.33 C367.87,428.96 363.36,433.05 361.84,438.13 C360.89,441.30 361.01,442.34 362.67,445.17 C364.93,449.05 370.37,453.00 373.44,453.00 C374.61,453.00 377.36,452.05 379.54,450.89 C384.30,448.35 386.24,448.39 405.47,451.55 C413.70,452.90 422.06,454.00 424.05,454.00 C426.62,454.00 429.63,455.26 434.41,458.34 L 441.15 462.67 L 436.79 464.34 C431.31,466.43 431.79,466.48 427.29,463.41 C419.11,457.82 408.00,462.74 408.00,471.95 C408.00,477.58 409.49,480.72 413.23,483.00 C418.15,486.00 423.22,485.62 427.42,481.94 C429.34,480.25 431.15,478.10 431.45,477.15 C431.80,476.06 435.30,474.22 440.89,472.20 L 449.77 468.99 L 458.88 474.20 C463.88,477.07 469.17,480.35 470.61,481.51 L 473.24 483.61 L 472.02 510.55 C471.35,525.37 470.51,541.50 470.15,546.40 L 469.50 555.29 L 459.50 560.97 C454.00,564.09 444.40,569.53 438.16,573.07 L 426.82 579.50 L 434.66 580.07 C446.73,580.94 464.03,581.07 470.99,580.34 ZM 354.40 570.75 C333.04,548.78 321.70,531.85 308.68,502.50 C285.90,451.12 287.39,378.35 312.25,328.50 C320.11,312.73 324.59,305.01 330.51,297.00 C332.75,293.98 335.40,290.20 336.41,288.61 C339.52,283.68 361.97,261.22 371.48,253.52 C385.31,242.31 396.01,235.54 413.50,226.95 C438.92,214.45 461.21,207.94 488.72,204.96 C505.14,203.19 537.33,204.19 552.00,206.94 C607.92,217.41 655.98,247.00 689.97,291.89 C704.76,311.42 715.58,332.29 723.01,355.58 C729.83,376.98 732.22,391.58 732.74,415.00 C733.40,444.90 729.64,468.88 720.41,493.76 C716.30,504.84 705.49,527.02 701.01,533.59 C699.35,536.02 696.56,540.14 694.80,542.75 C689.75,550.23 678.30,563.89 671.12,571.00 L 664.55 577.50 L 686.51 577.77 C708.29,578.04 708.48,578.02 710.26,575.77 C716.70,567.64 730.01,547.99 734.56,539.89 C749.46,513.36 758.23,487.63 763.66,454.50 C766.21,438.97 766.21,402.00 763.66,386.50 C759.93,363.83 756.70,351.53 749.21,331.50 C738.01,301.53 718.96,272.85 693.06,246.94 C670.69,224.58 647.55,208.26 620.50,195.78 C543.30,160.17 450.30,164.79 379.56,207.77 C358.78,220.39 348.04,230.23 347.98,236.70 C347.95,240.28 344.00,254.16 342.39,256.31 C341.25,257.84 340.93,257.98 341.35,256.75 C342.09,254.56 340.68,254.48 338.91,256.60 C338.18,257.49 336.54,258.60 335.27,259.09 C334.00,259.57 332.52,261.21 331.98,262.73 C331.43,264.25 330.33,266.67 329.52,268.11 C328.71,269.55 328.34,271.01 328.69,271.36 C329.05,271.71 328.47,272.04 327.42,272.10 C313.71,272.80 310.56,273.11 309.61,273.85 C309.00,274.33 307.38,275.00 306.00,275.34 C302.21,276.28 294.75,287.66 283.98,308.93 C276.23,324.24 269.46,342.26 266.49,355.50 C259.24,387.84 259.67,384.12 259.58,416.00 C259.50,447.83 260.50,457.13 266.55,480.40 C275.07,513.19 292.14,546.62 314.50,574.29 L 317.50 578.00 L 339.47 578.00 L 361.45 578.00 L 354.40 570.75 ZM 575.43 388.43 C576.29,387.56 577.00,385.99 577.00,384.93 C577.00,382.64 573.62,379.00 571.50,379.00 C569.48,379.00 566.00,382.59 566.00,384.67 C566.00,389.11 572.26,391.60 575.43,388.43 ZM 469.80 385.80 C472.69,382.91 469.74,377.00 465.40,377.00 C462.94,377.00 460.00,380.36 460.00,383.17 C460.00,386.47 467.20,388.40 469.80,385.80 ZM 498.56 344.93 C500.27,343.04 500.30,342.63 498.93,340.18 C497.75,338.08 496.67,337.50 493.99,337.50 C491.15,337.50 490.38,337.97 489.59,340.22 C487.68,345.66 494.61,349.30 498.56,344.93 ZM 259.00 760.10 L 259.00 747.00 L 270.25 747.01 C283.40,747.01 288.28,748.13 292.17,752.02 C294.34,754.19 295.00,755.79 295.00,758.88 C295.00,769.24 289.95,772.27 271.75,772.82 L 259.00 773.20 L 259.00 760.10 ZM 259.00 718.90 L 259.00 706.79 L 271.25 707.21 C278.84,707.47 284.58,708.15 286.32,709.01 C292.44,712.00 293.98,721.17 289.17,725.98 C285.39,729.77 280.42,730.99 268.75,730.99 L 259.00 731.00 L 259.00 718.90 ZM 415.56 476.78 C412.36,472.21 414.86,467.00 420.26,467.00 C423.64,467.00 426.00,469.44 426.00,472.92 C426.00,478.51 418.67,481.22 415.56,476.78 ZM 603.17 476.69 C600.60,473.94 600.45,472.22 602.56,469.22 C605.58,464.91 614.00,467.69 614.00,473.00 C614.00,475.71 610.53,479.00 607.67,479.00 C606.40,479.00 604.37,477.96 603.17,476.69 ZM 454.88 456.96 C444.81,450.88 435.09,444.78 433.29,443.41 C430.13,441.00 429.00,437.74 430.91,436.55 C431.42,436.24 432.12,434.23 432.49,432.09 C433.27,427.46 431.28,422.88 427.37,420.32 C424.86,418.68 424.84,418.60 426.84,417.86 C427.97,417.44 429.76,415.43 430.81,413.38 L 432.71 409.67 L 433.44 413.55 C434.31,418.16 436.46,422.66 439.29,425.75 C443.07,429.88 443.85,428.73 443.39,419.75 C442.93,410.88 442.83,410.85 447.25,420.64 C450.00,426.75 455.58,432.75 461.08,435.54 C463.75,436.89 466.17,438.00 466.47,438.00 C467.80,438.00 466.69,435.23 463.04,429.45 C460.86,426.00 458.77,421.90 458.38,420.34 L 457.68 417.50 L 460.25 420.50 C461.67,422.15 465.56,425.52 468.89,428.00 L 474.96 432.50 L 474.98 441.25 C474.99,446.06 474.64,450.00 474.21,450.00 C473.77,450.00 469.61,447.83 464.96,445.18 C440.64,431.32 439.28,430.75 437.00,433.50 C436.00,434.70 436.03,435.33 437.13,436.65 C438.64,438.47 456.64,450.38 467.23,456.57 C473.63,460.31 473.96,460.68 473.98,464.25 C473.99,466.31 473.82,468.00 473.60,468.00 C473.37,468.00 464.95,463.03 454.88,456.96 ZM 370.00 445.00 C367.38,442.38 367.46,438.58 370.19,436.04 C374.35,432.16 380.00,434.73 380.00,440.50 C380.00,446.25 373.96,448.96 370.00,445.00 ZM 650.17 445.40 C646.86,443.09 647.46,437.15 651.20,435.05 C653.70,433.66 654.13,433.70 656.70,435.62 C660.22,438.23 660.73,441.84 658.00,444.76 C655.54,447.41 653.29,447.59 650.17,445.40 ZM 416.13 434.44 C411.54,428.61 419.74,421.74 425.00,427.00 C427.50,429.50 427.57,433.17 425.17,435.35 C422.44,437.81 418.47,437.42 416.13,434.44 ZM 606.56 434.78 C605.70,433.56 605.00,431.86 605.00,431.00 C605.00,428.00 608.01,425.00 611.02,425.00 C614.25,425.00 618.00,428.32 618.00,431.19 C618.00,436.33 609.51,439.00 606.56,434.78 ZM 522.68 398.35 C522.31,397.97 521.99,387.50 521.97,375.08 C521.94,356.81 521.66,352.13 520.47,350.56 C517.01,345.99 519.58,338.91 525.60,336.39 C530.46,334.36 533.46,334.67 536.89,337.56 C540.55,340.64 541.77,345.63 539.85,349.63 C538.21,353.03 532.56,357.00 529.35,357.00 L 527.00 357.00 L 527.02 370.75 C527.02,378.31 527.39,385.07 527.84,385.77 C528.44,386.73 529.83,386.15 533.32,383.48 C538.32,379.66 539.34,376.56 535.94,375.48 C534.42,375.00 533.96,374.13 534.19,372.16 C534.60,368.65 538.57,368.09 542.30,371.02 C547.57,375.16 545.58,380.81 536.33,388.02 C532.57,390.95 528.12,394.63 526.43,396.19 C524.75,397.76 523.06,398.73 522.68,398.35 ZM 533.39 349.70 C535.59,348.09 535.23,343.16 532.80,341.64 C530.24,340.04 525.58,342.00 525.17,344.85 C524.79,347.50 527.52,351.00 529.96,351.00 C530.87,351.00 532.42,350.42 533.39,349.70 ZM 437.00 390.88 C437.00,386.31 443.31,370.97 444.64,372.30 C444.86,372.53 443.64,376.71 441.93,381.61 C438.84,390.42 437.00,393.89 437.00,390.88 ZM 465.50 353.06 C464.40,352.62 459.86,351.93 455.42,351.54 L 447.34 350.82 L 452.42 345.96 C457.07,341.51 457.53,341.28 457.85,343.30 C458.31,346.28 459.71,347.81 465.00,351.13 C469.37,353.88 469.58,354.72 465.50,353.06 ZM 434.67 348.75 C436.35,346.96 440.33,341.54 443.52,336.70 C449.49,327.63 451.26,326.00 455.14,326.00 C457.27,326.00 457.18,326.23 453.84,329.75 C451.88,331.81 448.44,336.04 446.18,339.15 C442.31,344.49 434.28,352.00 432.45,352.00 C431.99,352.00 432.99,350.54 434.67,348.75 ZM 555.00 351.56 C555.00,351.27 557.28,349.88 560.07,348.47 C564.91,346.01 565.11,345.75 564.47,342.70 C563.80,339.51 563.82,339.52 569.40,344.97 C572.48,347.97 575.00,350.47 575.00,350.51 C575.00,350.56 572.19,350.57 568.75,350.55 C565.31,350.52 560.81,350.86 558.75,351.30 C556.69,351.73 555.00,351.85 555.00,351.56 ZM 432.02 333.65 C431.97,329.63 438.09,320.76 439.76,322.43 C440.28,322.95 436.51,329.96 434.06,333.00 C432.33,335.15 432.04,335.24 432.02,333.65 ZM 520.02 316.97 C520.02,315.61 520.42,313.89 520.90,313.13 C521.42,312.31 521.25,310.79 520.48,309.29 C519.05,306.54 520.04,301.23 522.23,299.84 C524.88,298.16 528.93,298.96 530.59,301.49 C532.93,305.07 531.85,307.74 525.54,313.97 C520.47,318.97 520.00,319.22 520.02,316.97 ZM 526.39 307.74 C527.64,305.77 526.68,304.53 524.54,305.35 C522.76,306.03 522.40,310.37 524.18,309.77 C524.83,309.56 525.82,308.64 526.39,307.74 ZM 494.50 314.90 C488.77,310.67 487.00,308.22 487.00,304.54 C487.00,298.40 493.60,295.82 497.83,300.31 C499.94,302.56 500.68,305.99 499.34,307.33 C498.98,307.69 498.05,307.09 497.28,305.99 C496.51,304.90 494.98,304.00 493.87,304.00 C490.90,304.00 491.77,308.25 494.89,308.98 C498.42,309.81 502.48,318.26 499.19,317.93 C498.81,317.89 496.70,316.53 494.50,314.90 ZM 495.46 287.51 C491.29,281.22 489.39,279.16 479.00,269.60 C471.21,262.44 471.92,262.08 480.74,268.72 C487.31,273.65 492.87,280.01 496.95,287.25 C501.06,294.54 500.23,294.68 495.46,287.51 ZM 516.49 291.00 C516.90,289.62 518.81,285.46 520.74,281.75 C524.46,274.59 534.33,264.34 540.27,261.47 L 543.50 259.90 L 540.51 262.20 C531.34,269.25 526.08,275.49 520.03,286.50 C516.16,293.54 515.49,294.39 516.49,291.00 Z" fill="rgb(253,253,253)"/>
</g>
</svg>