<?xml version="1.0" standalone="no"?>
<!DOCTYPE svg PUBLIC "-//W3C//DTD SVG 20010904//EN"
 "http://www.w3.org/TR/2001/REC-SVG-20010904/DTD/svg10.dtd">
<svg version="1.0" xmlns="http://www.w3.org/2000/svg"
 width="1024.000000pt" height="1024.000000pt" viewBox="0 0 1024.000000 1024.000000"
 preserveAspectRatio="xMidYMid meet">

<g transform="translate(0.000000,1024.000000) scale(0.100000,-0.100000)"
fill="#000000" stroke="none">
<path d="M5287 8475 c-3 -20 -20 -85 -38 -145 l-32 -108 -146 95 c-80 53 -158
104 -172 113 -22 16 -29 16 -57 4 -18 -7 -32 -20 -32 -28 0 -9 -20 -38 -45
-66 -25 -28 -45 -55 -45 -60 0 -9 -35 -23 -60 -24 -8 -1 -19 -14 -25 -31 -5
-16 -16 -34 -24 -39 -10 -6 -11 -10 -1 -16 7 -4 -2 -10 -25 -14 -20 -4 -35 -9
-33 -11 2 -3 60 7 128 21 699 139 1437 -68 1960 -550 181 -168 365 -417 488
-662 72 -143 136 -349 177 -569 22 -117 27 -170 28 -325 0 -102 -5 -228 -12
-280 -63 -476 -271 -906 -600 -1242 l-76 -78 216 0 215 0 26 28 c87 93 225
312 318 503 179 372 265 823 231 1223 -35 410 -153 772 -364 1112 -83 133
-245 335 -361 448 -437 427 -974 678 -1562 731 l-71 6 -6 -36z m2295 -1957
c-7 -7 -12 -8 -12 -2 0 14 12 26 19 19 2 -3 -1 -11 -7 -17z"/>
<path d="M4553 8378 c-25 -27 -29 -38 -12 -38 17 0 41 29 37 46 -2 13 -7 11
-25 -8z"/>
<path d="M4518 8133 c7 -3 16 -2 19 1 4 3 -2 6 -13 5 -11 0 -14 -3 -6 -6z"/>
<path d="M5285 7818 c-53 -62 -72 -104 -93 -207 -10 -49 -22 -94 -26 -98 -4
-4 -6 45 -4 109 1 65 -1 113 -6 108 -17 -17 -46 -147 -52 -230 -3 -47 -7 -100
-10 -119 -9 -56 -25 -21 -34 75 -5 49 -13 100 -18 114 -8 21 -11 16 -22 -43
-7 -37 -16 -70 -21 -73 -5 -3 -10 28 -11 68 l-1 73 -7 -65 c-4 -36 -7 -58 -8
-50 -2 13 -3 13 -12 0 -5 -8 -14 -16 -20 -16 -5 -1 -13 -2 -16 -3 -3 0 3 -13
14 -28 11 -16 34 -57 51 -93 l32 -65 -35 40 c-32 36 -43 36 -37 3 0 -5 -3 -8
-9 -8 -5 0 -10 -7 -10 -15 0 -8 -6 -15 -14 -15 -7 0 -19 -6 -26 -14 -10 -13
-7 -13 19 -3 26 10 34 8 58 -9 40 -30 52 -68 29 -93 -16 -18 -16 -22 -2 -50
37 -70 -1 -69 -78 3 -50 46 -58 58 -56 87 3 53 1 57 -18 52 -11 -2 -37 3 -58
13 -21 9 -46 18 -54 19 -8 1 -23 5 -33 10 -10 4 -20 5 -24 2 -7 -8 58 -67 72
-66 23 3 32 -2 32 -18 0 -10 -4 -21 -10 -24 -5 -4 2 -15 17 -24 26 -17 56 -63
56 -84 0 -11 -78 64 -149 144 -24 28 -38 42 -31 32 8 -10 10 -31 7 -52 -4 -26
-2 -37 11 -45 9 -5 12 -10 5 -10 -13 0 -6 -71 8 -80 4 -3 4 -12 0 -19 -5 -7
-6 -22 -3 -33 4 -18 3 -19 -19 -8 -18 8 -16 5 9 -17 37 -32 43 -51 9 -28 -22
14 -26 13 -57 -10 -19 -14 -39 -25 -46 -25 -6 0 -17 -7 -24 -15 -15 -18 -44
-21 -34 -2 5 8 2 8 -9 -2 -21 -17 -22 -16 10 -19 35 -3 43 -12 10 -12 -16 0
-30 -8 -37 -20 -6 -11 -15 -20 -19 -20 -5 0 -34 -25 -65 -55 -31 -30 -50 -52
-41 -49 8 4 15 1 15 -4 0 -6 -17 -14 -37 -17 -21 -4 -58 -13 -83 -20 -25 -7
-68 -19 -97 -26 -29 -7 -49 -17 -46 -22 3 -5 -3 -6 -15 -3 -18 6 -20 3 -17
-15 3 -13 11 -27 20 -31 13 -8 13 -12 -1 -39 -8 -17 -13 -33 -11 -35 2 -3 10
9 17 25 14 36 49 70 36 36 -23 -61 -57 -232 -62 -315 l-6 -95 27 39 c15 21 48
82 72 135 25 53 56 119 69 147 31 67 109 139 164 154 24 7 60 8 84 4 l41 -7
-55 -11 c-101 -21 -128 -52 -238 -276 -34 -69 -75 -150 -91 -180 -35 -63 -48
-110 -32 -110 6 0 28 24 50 54 57 76 61 77 61 7 0 -33 4 -63 10 -66 19 -12 50
16 61 58 l12 42 12 -50 c16 -65 48 -127 76 -144 l22 -13 -5 63 c-3 35 -2 75 1
89 6 22 8 19 25 -25 38 -105 140 -215 199 -215 18 0 18 2 -4 38 -43 71 -67
117 -74 142 -6 21 3 15 51 -30 33 -30 76 -69 97 -85 l38 -30 -7 -88 -7 -87
-51 29 c-284 159 -316 172 -330 136 -7 -19 30 -46 226 -168 81 -51 149 -96
151 -102 3 -5 2 -24 0 -42 l-5 -32 -187 114 c-102 62 -203 127 -223 145 -37
30 -38 32 -23 60 20 39 19 110 -3 136 -68 85 -212 34 -212 -76 0 -63 39 -106
113 -124 15 -3 27 -11 27 -16 0 -6 -10 -8 -22 -5 -13 2 -81 14 -153 25 -191
30 -184 27 -200 66 -37 89 -176 99 -220 14 -58 -112 60 -213 174 -149 l37 20
190 -30 c105 -17 203 -31 218 -31 28 0 161 -78 151 -88 -3 -4 -26 -14 -50 -23
-42 -16 -45 -16 -61 2 -10 11 -35 24 -56 31 -118 35 -207 -95 -127 -186 56
-65 146 -56 190 18 17 29 34 40 107 66 l87 32 60 -32 c33 -17 86 -48 117 -68
l58 -37 0 -75 c0 -175 -31 -645 -43 -656 -6 -7 -91 -56 -187 -110 -96 -53
-188 -106 -205 -116 -30 -18 -26 -18 223 -18 l253 0 45 97 c25 54 49 117 54
140 6 24 12 328 14 679 l4 637 -115 126 c-63 69 -121 141 -129 159 -8 17 -20
32 -28 32 -8 0 -28 16 -45 35 -45 51 -44 104 3 151 29 29 41 34 81 34 40 0 52
-5 81 -34 29 -29 34 -41 34 -79 0 -36 -6 -51 -30 -77 -16 -18 -30 -36 -30 -41
0 -10 76 -100 173 -204 l75 -80 -2 -655 c-1 -724 3 -672 -69 -837 l-36 -83
130 0 131 0 -7 878 -7 877 -94 96 -94 96 0 159 0 159 -35 28 c-85 68 -53 187
56 203 44 6 94 -24 116 -71 23 -48 5 -107 -42 -138 l-35 -22 0 -145 0 -145 97
-98 96 -98 2 -67 c1 -37 5 -437 10 -889 l8 -823 104 0 c56 0 103 3 103 6 0 3
-11 43 -25 88 -36 120 -44 200 -55 600 -6 199 -15 492 -19 651 l-9 290 51 46
c29 25 101 87 162 137 107 91 109 93 106 131 -2 31 4 45 29 75 74 83 200 40
200 -69 0 -72 -63 -125 -132 -111 -18 4 -40 8 -50 9 -9 1 -80 -52 -158 -118
l-142 -120 6 -155 c3 -85 11 -342 16 -570 15 -604 22 -678 82 -837 l19 -53
267 0 c227 0 264 2 247 13 -11 8 -103 60 -205 117 -102 56 -190 108 -197 114
-8 7 -17 104 -27 286 -9 151 -18 312 -22 356 l-6 82 126 71 125 72 78 -26 c93
-31 93 -31 114 -70 23 -42 80 -69 126 -60 42 8 89 50 99 89 16 64 -52 146
-121 146 -18 0 -49 -11 -71 -26 l-38 -26 -53 16 c-29 10 -53 18 -53 20 0 2 26
19 58 39 50 31 77 39 203 60 303 52 314 53 344 28 34 -26 110 -29 143 -5 48
34 65 101 37 154 -22 42 -53 60 -106 60 -55 0 -94 -26 -115 -77 -8 -18 -18
-33 -22 -33 -4 0 -70 -11 -146 -25 -77 -14 -151 -25 -165 -24 -17 1 -10 4 18
10 54 11 86 31 112 72 43 69 -4 163 -87 174 -107 14 -166 -69 -129 -183 7 -23
18 -16 -297 -210 -93 -57 -171 -104 -176 -104 -4 0 -13 77 -19 171 l-11 172
62 61 c34 33 74 77 89 96 l26 35 -6 -35 c-3 -19 -23 -68 -45 -108 -22 -41 -37
-76 -35 -79 3 -2 16 1 29 8 70 37 139 123 165 206 9 29 20 53 24 53 15 0 22
-73 15 -163 -6 -82 -6 -89 9 -77 53 44 92 174 81 273 -8 81 9 63 30 -31 23
-107 36 -115 33 -19 -1 42 0 80 3 83 3 3 16 -9 28 -25 34 -48 43 -39 38 37 -3
51 -15 93 -51 177 -64 149 -108 212 -172 242 l-50 24 53 -4 c88 -7 132 -61
220 -267 41 -99 113 -220 129 -220 13 0 -33 309 -57 383 -5 15 -7 27 -5 27 10
0 44 -80 65 -150 48 -165 62 -206 80 -240 15 -30 20 -32 25 -17 4 10 5 39 2
64 l-5 47 34 -65 c19 -35 45 -77 59 -94 l24 -30 1 35 c0 36 -34 194 -68 313
-38 133 1 57 53 -103 40 -124 94 -237 127 -267 l21 -18 -7 65 c-6 57 -43 229
-61 285 -3 11 2 7 11 -10 10 -16 39 -90 65 -164 27 -73 62 -154 79 -180 l32
-46 -6 45 c-3 25 -8 63 -12 85 l-6 40 33 -60 c17 -33 43 -76 56 -95 l25 -35
-7 50 c-4 27 -22 92 -41 144 -36 99 -39 136 -4 58 18 -40 142 -265 169 -307
20 -30 12 35 -13 108 -14 40 -23 72 -21 72 1 0 23 -33 49 -72 93 -148 118
-160 73 -34 -107 294 -450 563 -870 680 -67 19 -135 37 -150 41 -35 7 -106 72
-165 150 -25 33 -58 74 -74 91 -32 34 -25 50 14 35 30 -12 55 -39 116 -131 27
-41 62 -87 77 -102 25 -25 80 -46 92 -35 3 3 -9 32 -27 64 -72 129 -121 226
-115 231 8 8 28 -22 76 -113 23 -44 56 -96 72 -115 38 -45 79 -72 87 -59 4 6
18 1 34 -12 15 -12 30 -19 33 -15 12 12 -51 160 -103 239 -29 45 -50 84 -47
87 11 11 81 -83 123 -165 40 -79 116 -182 127 -171 2 2 0 20 -6 41 l-10 36 62
-57 c33 -31 63 -52 65 -46 6 18 -54 135 -117 227 -33 49 -61 94 -61 99 0 19
44 -32 100 -114 65 -96 149 -194 194 -227 16 -13 31 -23 33 -23 12 0 -52 121
-131 250 -43 69 -50 90 -28 76 5 -3 47 -56 94 -118 154 -203 235 -269 155
-125 -99 177 -104 175 55 20 140 -137 168 -159 168 -130 0 21 -72 126 -124
181 -25 27 -46 51 -46 53 0 1 38 -17 85 -42 46 -25 87 -45 90 -45 15 0 -39 61
-87 98 -118 90 -300 167 -483 203 -230 46 -574 12 -690 -67 -32 -23 -40 -16
-14 12 50 54 215 114 313 114 53 0 51 15 -5 40 -80 34 -50 35 36 1 72 -29 175
-43 175 -23 0 9 -67 51 -137 86 -29 15 -53 29 -53 32 0 10 48 -5 165 -51 60
-23 123 -46 139 -49 26 -6 28 -5 16 9 -7 8 -47 38 -89 67 -82 55 -75 55 69 -2
111 -44 170 -62 170 -51 0 11 -111 88 -152 106 l-33 14 35 1 c19 0 75 -7 124
-16 48 -8 90 -13 93 -10 12 12 -147 76 -207 84 l-65 8 59 14 c44 10 54 16 40
21 -51 20 -192 2 -288 -37 -14 -5 -17 -4 -12 5 4 6 47 32 94 57 l87 45 -67 -4
c-76 -5 -164 -41 -238 -98 -70 -54 -77 -56 -43 -14 17 22 58 60 92 85 33 25
60 48 61 52 0 12 -87 -18 -134 -46 -25 -14 -75 -60 -112 -101 -37 -41 -69 -73
-71 -71 -7 7 23 59 71 120 25 33 44 61 42 63 -7 7 -64 -26 -102 -59 -20 -18
-77 -85 -125 -150 -49 -64 -94 -120 -101 -124 -13 -8 -7 1 41 67 l25 32 -40
-6 c-33 -5 -36 -4 -20 6 52 32 101 75 104 89 3 13 -6 15 -60 11 -35 -2 -81 0
-103 5 -37 9 -34 10 40 11 81 1 136 19 175 58 13 13 -1 14 -122 11 -76 -2
-133 1 -128 6 4 4 57 14 117 22 60 7 136 23 169 36 l59 23 -132 3 c-124 2
-163 12 -110 26 12 3 60 8 107 12 88 5 207 31 216 46 3 4 -32 8 -78 9 -46 0
-103 4 -128 8 l-45 8 35 6 c19 3 73 11 119 17 82 11 198 47 187 57 -3 3 -34
11 -68 18 -58 11 -60 12 -33 19 17 4 63 17 104 29 70 20 73 22 45 30 -34 10
-181 1 -221 -13 -24 -9 -22 -5 17 30 36 31 41 39 25 39 -27 1 -95 -31 -150
-69 -25 -17 -45 -27 -45 -22 0 5 18 34 41 65 22 32 37 57 34 57 -21 0 -70 -38
-123 -95 -34 -36 -62 -60 -62 -54 0 7 16 41 35 76 20 34 31 63 25 63 -25 0
-100 -86 -141 -162 -32 -59 -45 -76 -47 -61 -3 17 35 129 73 216 13 31 -12 18
-50 -25z m185 -161 c0 -2 -22 -18 -49 -36 -81 -52 -173 -160 -226 -264 -39
-76 -46 -85 -40 -53 11 67 73 176 134 236 60 60 181 138 181 117z m-422 -187
l0 -35 -8 30 c-4 17 -8 44 -8 60 0 29 0 29 8 5 4 -14 8 -41 8 -60z m256 -232
c9 -12 16 -34 16 -48 0 -29 -45 -88 -92 -121 l-31 -23 6 47 c4 26 2 49 -3 52
-19 12 -10 65 15 90 30 31 69 32 89 3z m55 -362 c48 -25 65 -91 36 -145 -14
-28 -68 -61 -99 -61 -14 0 -16 -19 -16 -151 l0 -151 48 35 c55 41 64 68 27 85
-30 14 -31 26 -6 51 22 22 49 19 80 -10 23 -21 28 -68 11 -99 -10 -18 -204
-180 -215 -180 -3 0 -5 102 -5 228 -1 178 -4 232 -15 252 -25 44 -19 88 19
126 38 38 85 45 135 20z m-770 -52 c-12 -33 3 -51 79 -100 28 -19 52 -36 52
-38 0 -2 -19 3 -42 11 -24 8 -89 17 -146 20 l-103 6 43 24 c23 13 57 42 76 64
39 45 56 51 41 13z m1109 -37 l52 -53 -67 -1 c-38 0 -86 -5 -107 -11 -22 -6
-41 -10 -43 -8 -2 2 22 19 54 38 50 30 58 38 55 61 -2 15 -2 27 0 27 2 0 27
-24 56 -53z m-1273 -362 c-21 -58 -42 -108 -46 -111 -15 -9 -10 60 6 107 17
47 65 123 73 115 2 -3 -12 -53 -33 -111z m-170 -455 c36 -40 7 -110 -47 -110
-25 0 -68 44 -68 70 0 51 79 80 115 40z m1905 0 c24 -24 25 -48 4 -78 -31 -45
-114 -19 -114 36 0 56 69 83 110 42z m-2373 -92 c44 -41 15 -108 -46 -108 -30
0 -71 38 -71 65 0 7 9 24 21 39 25 32 64 34 96 4z m2793 2 c39 -39 11 -110
-44 -110 -25 0 -66 41 -66 65 0 7 9 24 21 39 25 31 61 34 89 6z m-2335 -325
c29 -28 31 -51 9 -83 -19 -28 -74 -30 -98 -3 -26 28 -18 82 14 98 36 18 48 16
75 -12z m1877 -2 c38 -34 7 -103 -47 -103 -29 0 -65 32 -65 58 0 10 7 28 16
40 18 27 69 30 96 5z"/>
<path d="M5237 7184 c-14 -14 -7 -35 11 -32 9 2 17 10 17 17 0 16 -18 25 -28
15z"/>
<path d="M5266 6811 c-37 -41 14 -97 60 -66 29 18 31 46 6 68 -24 22 -45 21
-66 -2z"/>
<path d="M4506 7387 c3 -8 11 -14 19 -14 20 0 19 4 -5 17 -15 8 -18 8 -14 -3z"/>
<path d="M4753 7333 c15 -2 39 -2 55 0 15 2 2 4 -28 4 -30 0 -43 -2 -27 -4z"/>
<path d="M4838 7313 c7 -3 16 -2 19 1 4 3 -2 6 -13 5 -11 0 -14 -3 -6 -6z"/>
<path d="M4788 7303 c6 -2 18 -2 25 0 6 3 1 5 -13 5 -14 0 -19 -2 -12 -5z"/>
<path d="M4924 7185 c-7 -18 3 -35 21 -35 18 0 26 25 12 39 -15 15 -27 14 -33
-4z"/>
<path d="M4905 6846 c-19 -28 -10 -54 22 -67 52 -19 86 37 45 74 -26 24 -49
21 -67 -7z"/>
<path d="M4270 6795 c-7 -9 -11 -17 -9 -20 3 -2 10 5 17 15 14 24 10 26 -8 5z"/>
<path d="M4360 6785 c-7 -8 -21 -15 -31 -15 -11 0 -19 -5 -19 -11 0 -5 -4 -8
-9 -5 -10 6 -25 -24 -16 -32 10 -10 53 17 74 47 23 32 23 43 1 16z"/>
<path d="M4219 6775 c-1 -3 -2 -8 -3 -12 -1 -5 -5 -14 -10 -21 -7 -11 -4 -12
12 -3 27 14 39 33 16 24 -12 -4 -15 -3 -10 5 4 7 5 12 2 12 -3 0 -7 -2 -7 -5z"/>
<path d="M4000 6469 c-40 -25 -40 -25 -50 -9 -10 15 -80 -229 -94 -330 l-7
-45 21 20 c11 12 38 54 60 95 l40 75 -6 -65 -6 -65 21 30 c27 39 54 110 82
210 11 43 23 86 26 95 4 13 4 13 -6 0 -7 -10 -11 -11 -11 -2 0 18 -31 14 -70
-9z"/>
<path d="M4637 6462 c-10 -2 -23 -15 -28 -29 -19 -52 48 -85 86 -43 33 36 -6
83 -58 72z"/>
<path d="M3878 6443 c-3 -12 0 -20 8 -20 16 0 17 6 5 25 -6 11 -9 9 -13 -5z"/>
<path d="M5681 6426 c-21 -25 -9 -69 21 -80 50 -17 89 42 52 78 -19 20 -58 21
-73 2z"/>
<path d="M3649 6413 c-13 -16 -12 -17 4 -4 16 13 21 21 13 21 -2 0 -10 -8 -17
-17z"/>
<path d="M3782 6338 c-26 -81 -36 -129 -58 -262 -4 -29 -4 -29 16 -11 21 19
27 30 10 20 -6 -3 -7 1 -4 9 3 9 11 14 17 13 7 -1 11 6 11 15 -1 10 2 16 6 13
8 -5 54 92 65 137 6 23 3 29 -16 37 -16 5 -26 5 -31 -2 -4 -6 -10 -9 -13 -6
-3 4 4 32 16 63 11 32 19 60 16 63 -3 2 -19 -37 -35 -89z"/>
<path d="M3750 6360 c-9 -23 -15 -28 -21 -18 -6 10 -12 8 -23 -7 -9 -11 -16
-14 -16 -8 0 17 -80 12 -80 -4 0 -7 -5 -13 -11 -13 -5 0 -7 -5 -4 -10 4 -6
-10 -59 -29 -118 -20 -59 -40 -129 -45 -157 -8 -45 -8 -48 5 -30 9 11 32 53
52 94 39 80 50 80 33 1 -15 -70 -14 -76 10 -54 28 25 51 72 84 174 16 47 37
105 47 129 10 24 17 46 15 48 -3 2 -10 -10 -17 -27z"/>
<path d="M3541 6296 c-6 -7 -9 -28 -6 -47 4 -23 0 -41 -10 -54 -15 -20 -15
-20 -9 0 5 13 -4 8 -24 -15 -17 -19 -31 -39 -32 -44 0 -5 -9 -1 -20 9 -26 24
-45 14 -70 -36 -12 -22 -17 -38 -11 -34 8 4 8 -1 2 -18 -6 -14 -7 -27 -5 -30
3 -3 -3 -8 -14 -12 -19 -5 -58 -92 -47 -103 6 -6 125 180 125 196 0 6 5 12 11
12 7 0 8 -7 4 -17 -16 -43 -46 -165 -43 -175 2 -6 21 21 42 61 20 39 34 76 31
81 -4 6 -2 9 3 8 12 -3 123 213 116 224 -8 12 -31 9 -43 -6z"/>
<path d="M2920 6279 c0 -5 -5 -7 -10 -4 -6 3 -13 -2 -17 -12 -4 -10 -15 -24
-25 -31 -10 -7 -18 -19 -18 -27 0 -7 -6 -20 -14 -27 -11 -12 -11 -21 -1 -54 7
-21 21 -73 30 -114 9 -41 30 -127 45 -190 l29 -115 -7 85 c-4 47 -7 178 -7
293 0 114 -1 207 -2 207 -2 0 -3 -5 -3 -11z"/>
<path d="M2597 5925 c11 -223 53 -446 124 -660 78 -235 249 -546 406 -740 l49
-60 219 -3 220 -2 -86 87 c-118 122 -185 202 -258 313 -59 88 -193 348 -226
437 -10 28 -14 32 -14 16 -1 -13 -5 -23 -10 -23 -5 0 -9 16 -8 35 1 23 4 30
10 22 9 -13 6 0 -17 74 -8 24 -14 37 -15 29 -1 -11 -10 -15 -28 -14 -16 1 -40
-5 -55 -12 -25 -13 -108 -15 -108 -3 0 3 -6 6 -13 6 -7 0 -25 8 -40 18 l-28
18 95 45 c53 25 96 51 96 58 0 7 -63 97 -140 200 -77 103 -140 191 -140 195 0
5 -6 9 -14 9 -8 0 -17 10 -19 23 -3 12 -3 -18 0 -68z"/>
<path d="M2942 5660 c0 -14 2 -19 5 -12 2 6 2 18 0 25 -3 6 -5 1 -5 -13z"/>
<path d="M2961 5554 c0 -11 3 -14 6 -6 3 7 2 16 -1 19 -3 4 -6 -2 -5 -13z"/>
<path d="M3965 4343 c66 -6 91 -13 75 -23 -7 -4 -14 -24 -14 -44 l-1 -36 -55
-2 c-194 -7 719 -15 1910 -17 l1395 -2 65 56 c36 31 67 60 68 66 2 5 -649 8
-1740 7 -958 -1 -1725 -3 -1703 -5z"/>
<path d="M3900 4140 l-515 -5 1 -30 c0 -16 -5 -42 -12 -56 l-13 -26 862 -6
c474 -4 1295 -7 1824 -7 l961 0 81 61 c45 34 81 65 81 70 0 9 -2324 9 -3270
-1z"/>
<path d="M3707 3890 c199 -81 528 -148 828 -170 560 -40 1218 -15 1605 61 149
29 460 120 460 135 0 2 -667 4 -1482 3 l-1483 0 72 -29z"/>
<path d="M4778 3355 c-34 -19 -58 -63 -58 -106 0 -36 51 -94 93 -105 128 -32
214 115 118 200 -29 26 -116 32 -153 11z"/>
<path d="M5768 3352 c-16 -9 -35 -32 -44 -50 -23 -48 -12 -93 33 -132 33 -30
41 -32 91 -28 48 4 60 10 89 41 35 39 42 73 23 121 -22 59 -132 86 -192 48z"/>
<path d="M2370 2844 l0 -495 288 3 c274 3 290 5 347 27 73 29 145 98 163 157
27 92 9 189 -46 247 -29 31 -92 67 -117 67 -26 0 -16 14 30 42 24 14 56 46 72
69 25 38 28 51 28 129 0 113 -24 154 -117 199 -87 42 -158 51 -420 51 l-228 0
0 -496z m471 316 c50 -14 71 -41 77 -98 3 -41 0 -52 -23 -80 -34 -41 -77 -52
-202 -52 l-103 0 0 120 0 120 108 0 c59 0 123 -5 143 -10z m56 -414 c37 -23
53 -54 53 -104 0 -96 -68 -132 -252 -132 l-108 0 0 131 0 131 138 -4 c113 -2
142 -6 169 -22z"/>
<path d="M5250 3242 l-75 -17 -3 -82 -3 -82 -57 -3 -57 -3 0 -75 0 -75 56 -3
57 -3 4 -202 c3 -186 5 -206 26 -248 42 -87 134 -125 276 -117 119 8 126 13
126 97 l0 68 -81 -1 c-77 -1 -82 0 -105 27 -23 27 -24 32 -24 203 l0 174 105
0 105 0 0 80 0 80 -105 0 -105 0 0 100 0 100 -32 -1 c-18 0 -67 -8 -108 -17z"/>
<path d="M4484 3051 c-22 -10 -56 -35 -76 -55 -19 -20 -38 -33 -41 -29 -4 3
-7 26 -7 50 l0 44 -102 -3 -103 -3 0 -165 c-1 -91 1 -249 4 -352 l4 -188 103
0 104 0 0 223 0 222 26 29 c39 41 83 56 169 56 l76 0 -3 93 -3 92 -55 3 c-37
1 -68 -4 -96 -17z"/>
<path d="M3292 2788 l3 -273 30 -60 c41 -81 99 -118 195 -123 85 -5 147 14
218 68 l52 40 0 -45 0 -45 105 0 105 0 -2 353 -3 352 -107 3 -108 3 0 -228 c0
-264 -4 -278 -87 -315 -63 -28 -118 -20 -155 22 l-28 30 0 245 0 245 -111 0
-110 0 3 -272z"/>
<path d="M4740 2705 l0 -355 110 0 110 0 -2 353 -3 352 -107 3 -108 3 0 -356z"/>
<path d="M5737 3053 c-9 -8 -9 -546 0 -635 l6 -68 103 0 104 0 0 339 c0 187
-3 346 -6 355 -5 13 -24 16 -103 16 -54 0 -101 -3 -104 -7z"/>
<path d="M7460 2920 c12 -8 11 -10 -7 -11 -13 -1 -26 -2 -30 -4 -11 -2 -82
-15 -120 -21 -23 -3 -30 -9 -27 -19 4 -10 -3 -18 -21 -25 -36 -14 -115 -13
-115 1 0 6 -8 9 -19 6 -10 -2 -26 0 -36 6 -13 7 -16 6 -10 -3 11 -17 74 -42
87 -34 6 4 8 3 4 -4 -7 -11 34 -26 180 -65 148 -40 184 -68 184 -140 0 -108
-153 -143 -377 -86 -39 10 -94 29 -122 44 l-51 25 0 -100 0 -99 53 -16 c163
-47 366 -60 480 -30 109 28 190 84 230 159 31 58 31 193 0 252 -25 46 -42 63
-72 69 -29 5 -62 30 -53 40 4 5 2 5 -5 2 -14 -9 -45 2 -38 13 5 8 -17 18 -84
39 -42 13 -51 14 -31 1z"/>
<path d="M6445 2901 c51 -4 64 -8 48 -14 -12 -4 -41 -7 -65 -6 -53 3 -110 -10
-102 -22 3 -5 -1 -9 -10 -9 -8 0 -16 -5 -18 -10 -2 -6 -24 -11 -50 -12 -26 -1
-44 -6 -42 -10 3 -4 0 -8 -5 -8 -6 0 -11 5 -11 10 0 6 -7 10 -15 10 -8 0 -16
6 -17 13 -5 44 -16 -149 -17 -305 l-1 -188 115 0 115 0 0 200 0 200 225 0 225
0 0 24 c0 41 -18 76 -39 76 -11 0 -23 5 -26 10 -3 6 -41 10 -83 11 -88 0 -165
13 -142 22 8 4 53 8 100 10 47 2 9 3 -85 3 -102 0 -142 -2 -100 -5z"/>
</g>
</svg>
